<?xml version="1.0" encoding="UTF-8"?>
<svg xmlns="http://www.w3.org/2000/svg" xmlns:xlink="http://www.w3.org/1999/xlink" viewBox="0 0 660 400">
  <defs>
    <linearGradient id="New_Gradient_Swatch_copy_7" data-name="New Gradient Swatch copy 7" x1="492.85" y1="237.95" x2="454.93" y2="310.22" gradientUnits="userSpaceOnUse">
      <stop offset=".04" stop-color="#138bbd"/>
      <stop offset=".23" stop-color="#169ac6"/>
      <stop offset=".59" stop-color="#1ec2df"/>
      <stop offset="1" stop-color="#2af6ff"/>
    </linearGradient>
    <linearGradient id="linear-gradient" x1="447.35" y1="305.92" x2="548.67" y2="275.58" gradientUnits="userSpaceOnUse">
      <stop offset=".04" stop-color="#138bbd"/>
      <stop offset=".23" stop-color="#169ac6"/>
      <stop offset=".59" stop-color="#1ec2df"/>
      <stop offset="1" stop-color="#2af6ff"/>
    </linearGradient>
    <linearGradient id="linear-gradient-2" x1="208.17" y1="255.32" x2="477.27" y2="255.32" gradientUnits="userSpaceOnUse">
      <stop offset=".06" stop-color="#9f79b8"/>
      <stop offset=".26" stop-color="#a07bb9"/>
      <stop offset=".36" stop-color="#a782bf"/>
      <stop offset=".43" stop-color="#b28fc8"/>
      <stop offset=".49" stop-color="#c1a1d5"/>
      <stop offset=".51" stop-color="#c3a5d6"/>
      <stop offset=".52" stop-color="#ccb2dc"/>
      <stop offset=".53" stop-color="#dac8e6"/>
      <stop offset=".55" stop-color="#eee6f4"/>
      <stop offset=".56" stop-color="#fff"/>
      <stop offset=".57" stop-color="#ebdff3"/>
      <stop offset=".58" stop-color="#ddc7ea"/>
      <stop offset=".59" stop-color="#d4b9e4"/>
      <stop offset=".6" stop-color="#d1b4e3"/>
      <stop offset=".66" stop-color="#b294d5"/>
      <stop offset=".72" stop-color="#9b7ccb"/>
      <stop offset=".77" stop-color="#8d6ec5"/>
      <stop offset=".81" stop-color="#8969c3"/>
      <stop offset="1" stop-color="#b086cc"/>
    </linearGradient>
    <linearGradient id="linear-gradient-3" x1="202.45" y1="248.27" x2="461.33" y2="248.27" gradientUnits="userSpaceOnUse">
      <stop offset="0" stop-color="#2f054a"/>
      <stop offset="1" stop-color="#5824b0"/>
    </linearGradient>
    <linearGradient id="linear-gradient-4" x1="205.34" y1="248.27" x2="458.44" y2="248.27" gradientUnits="userSpaceOnUse">
      <stop offset="0" stop-color="#3d065f"/>
      <stop offset="1" stop-color="#5f27bd"/>
    </linearGradient>
    <radialGradient id="New_Gradient_Swatch_copy" data-name="New Gradient Swatch copy" cx="1286.76" cy="-2041.71" fx="1286.76" fy="-2041.71" r="36.18" gradientTransform="translate(-999.78 1412.52) scale(1 .59)" gradientUnits="userSpaceOnUse">
      <stop offset="0" stop-color="#972a74"/>
      <stop offset=".04" stop-color="#8a266a"/>
      <stop offset=".19" stop-color="#601a49"/>
      <stop offset=".35" stop-color="#3d112f"/>
      <stop offset=".51" stop-color="#22091a"/>
      <stop offset=".67" stop-color="#0f040b"/>
      <stop offset=".83" stop-color="#030102"/>
      <stop offset="1" stop-color="#000"/>
    </radialGradient>
    <linearGradient id="linear-gradient-5" x1="-402.54" y1="487.79" x2="-520.53" y2="398.59" gradientTransform="translate(1411.21 339.06) rotate(30) skewX(-49.11)" gradientUnits="userSpaceOnUse">
      <stop offset="0" stop-color="#3d065f"/>
      <stop offset="1" stop-color="#12054e"/>
      <stop offset="1" stop-color="#10054d"/>
    </linearGradient>
    <linearGradient id="linear-gradient-6" x1="312.4" y1="188.78" x2="378.5" y2="292.52" gradientUnits="userSpaceOnUse">
      <stop offset=".06" stop-color="#9f79b8"/>
      <stop offset=".25" stop-color="#a17bb9"/>
      <stop offset=".35" stop-color="#a882c0"/>
      <stop offset=".42" stop-color="#b48fcb"/>
      <stop offset=".48" stop-color="#c5a2db"/>
      <stop offset=".54" stop-color="#dbbaf0"/>
      <stop offset=".56" stop-color="#e6c6fa"/>
      <stop offset=".6" stop-color="#d6b6f0"/>
      <stop offset=".69" stop-color="#b494dc"/>
      <stop offset=".77" stop-color="#9c7cce"/>
      <stop offset=".85" stop-color="#8e6ec5"/>
      <stop offset=".92" stop-color="#8969c3"/>
    </linearGradient>
    <linearGradient id="linear-gradient-7" x1="5445.39" y1="3.04" x2="5176.07" y2="236.98" gradientTransform="translate(5661.35) rotate(-180) scale(1 -1)" xlink:href="#linear-gradient-4"/>
    <linearGradient id="New_Gradient_Swatch_copy_26" data-name="New Gradient Swatch copy 26" x1="1434.71" y1="248.83" x2="1306.2" y2="49.61" gradientTransform="translate(-985.58)" gradientUnits="userSpaceOnUse">
      <stop offset=".03" stop-color="#7c1dc9"/>
      <stop offset=".21" stop-color="#6e41d1"/>
      <stop offset=".62" stop-color="#4c9be8"/>
      <stop offset="1" stop-color="#2af6ff"/>
    </linearGradient>
    <linearGradient id="linear-gradient-8" x1="1484.93" y1="264.4" x2="1352.54" y2="52.86" gradientTransform="translate(-985.58)" gradientUnits="userSpaceOnUse">
      <stop offset=".06" stop-color="#9f79b8"/>
      <stop offset=".26" stop-color="#a07bb9"/>
      <stop offset=".36" stop-color="#a782bf"/>
      <stop offset=".43" stop-color="#b28fc8"/>
      <stop offset=".49" stop-color="#c1a1d5"/>
      <stop offset=".51" stop-color="#c3a5d6"/>
      <stop offset=".52" stop-color="#ccb2dc"/>
      <stop offset=".53" stop-color="#dac8e6"/>
      <stop offset=".55" stop-color="#eee6f4"/>
      <stop offset=".56" stop-color="#fff"/>
      <stop offset=".57" stop-color="#ebdff3"/>
      <stop offset=".58" stop-color="#ddc7ea"/>
      <stop offset=".59" stop-color="#d4b9e4"/>
      <stop offset=".6" stop-color="#d1b4e3"/>
      <stop offset=".61" stop-color="#cfb1e1"/>
      <stop offset=".76" stop-color="#be99d5"/>
      <stop offset=".89" stop-color="#b38bce"/>
      <stop offset="1" stop-color="#b086cc"/>
    </linearGradient>
    <radialGradient id="Radial_Gradient_1" data-name="Radial Gradient 1" cx="1447.16" cy="134.43" fx="1447.16" fy="134.43" r="22.5" gradientTransform="translate(-985.58)" gradientUnits="userSpaceOnUse">
      <stop offset="0" stop-color="#fff"/>
      <stop offset="1" stop-color="#000"/>
    </radialGradient>
    <linearGradient id="linear-gradient-9" x1="232.66" y1="125.07" x2="359.8" y2="96.57" xlink:href="#linear-gradient"/>
    <linearGradient id="linear-gradient-10" x1="299.84" y1="132.67" x2="325.88" y2="124.87" xlink:href="#linear-gradient"/>
    <linearGradient id="linear-gradient-11" x1="286.34" y1="82.58" x2="316.32" y2="133.81" gradientUnits="userSpaceOnUse">
      <stop offset="0" stop-color="#4ec1de"/>
      <stop offset=".24" stop-color="#4cc4de"/>
      <stop offset=".45" stop-color="#49cfde"/>
      <stop offset=".64" stop-color="#43e0de"/>
      <stop offset=".65" stop-color="#43e2de"/>
      <stop offset=".77" stop-color="#3cabc7"/>
      <stop offset=".84" stop-color="#3a91bd"/>
      <stop offset=".88" stop-color="#3a95be"/>
      <stop offset="1" stop-color="#3ca0c3"/>
    </linearGradient>
    <radialGradient id="Radial_Gradient_1-2" data-name="Radial Gradient 1" cx="300.42" cy="110.87" fx="300.42" fy="110.87" r="21.95" gradientTransform="matrix(1, 0, 0, 1, 0, 0)" xlink:href="#Radial_Gradient_1"/>
    <radialGradient id="radial-gradient" cx="-994.64" cy="-1891.02" fx="-994.64" fy="-1891.02" r="11.12" gradientTransform="translate(1311.6 962.82) rotate(-32.87) scale(.38 .66) skewX(-.02)" gradientUnits="userSpaceOnUse">
      <stop offset="0" stop-color="#972a74"/>
      <stop offset=".04" stop-color="#8a266a"/>
      <stop offset=".19" stop-color="#601a49"/>
      <stop offset=".35" stop-color="#3d112f"/>
      <stop offset=".51" stop-color="#22091a"/>
      <stop offset=".67" stop-color="#0f040b"/>
      <stop offset=".83" stop-color="#030102"/>
      <stop offset="1" stop-color="#000"/>
    </radialGradient>
    <linearGradient id="linear-gradient-12" x1="276.96" y1="311.48" x2="394.46" y2="111.31" gradientUnits="userSpaceOnUse">
      <stop offset=".06" stop-color="#e6e7e8"/>
      <stop offset=".08" stop-color="#ebeced"/>
      <stop offset=".12" stop-color="#f3f4f5"/>
      <stop offset=".22" stop-color="#e6e7e8"/>
      <stop offset=".58" stop-color="#fafafb"/>
      <stop offset=".69" stop-color="#e6e7e8"/>
      <stop offset="1" stop-color="#e6e7e8"/>
    </linearGradient>
    <linearGradient id="New_Gradient_Swatch_copy_7-2" data-name="New Gradient Swatch copy 7" x1="383.45" y1="118.9" x2="340.45" y2="97.9" xlink:href="#New_Gradient_Swatch_copy_7"/>
    <linearGradient id="New_Gradient_Swatch_copy_7-3" data-name="New Gradient Swatch copy 7" x1="383.25" y1="119.29" x2="340.25" y2="98.29" xlink:href="#New_Gradient_Swatch_copy_7"/>
    <linearGradient id="New_Gradient_Swatch_copy_7-4" data-name="New Gradient Swatch copy 7" x1="382.98" y1="119.85" x2="339.98" y2="98.85" xlink:href="#New_Gradient_Swatch_copy_7"/>
    <linearGradient id="New_Gradient_Swatch_copy_7-5" data-name="New Gradient Swatch copy 7" x1="382.82" y1="120.18" x2="339.82" y2="99.18" xlink:href="#New_Gradient_Swatch_copy_7"/>
    <linearGradient id="New_Gradient_Swatch_copy_7-6" data-name="New Gradient Swatch copy 7" x1="381.93" y1="122" x2="338.93" y2="101" xlink:href="#New_Gradient_Swatch_copy_7"/>
    <linearGradient id="linear-gradient-13" x1="344.99" y1="137.64" x2="422.01" y2="137.64" gradientUnits="userSpaceOnUse">
      <stop offset=".01" stop-color="#9f19ab"/>
      <stop offset=".43" stop-color="#5f27bd"/>
      <stop offset=".9" stop-color="#3d065f"/>
    </linearGradient>
    <linearGradient id="New_Gradient_Swatch_copy_8" data-name="New Gradient Swatch copy 8" x1="377.24" y1="171.3" x2="427.24" y2="198.55" gradientUnits="userSpaceOnUse">
      <stop offset=".04" stop-color="#ffa98c"/>
      <stop offset=".32" stop-color="#feb892"/>
      <stop offset=".86" stop-color="#fee0a3"/>
      <stop offset="1" stop-color="#feeca8"/>
    </linearGradient>
    <linearGradient id="New_Gradient_Swatch_copy_8-2" data-name="New Gradient Swatch copy 8" x1="377.13" y1="171.49" x2="427.13" y2="198.74" xlink:href="#New_Gradient_Swatch_copy_8"/>
    <linearGradient id="New_Gradient_Swatch_copy_8-3" data-name="New Gradient Swatch copy 8" x1="377.03" y1="171.68" x2="427.03" y2="198.93" xlink:href="#New_Gradient_Swatch_copy_8"/>
    <linearGradient id="New_Gradient_Swatch_copy_8-4" data-name="New Gradient Swatch copy 8" x1="376.93" y1="171.87" x2="426.93" y2="199.12" xlink:href="#New_Gradient_Swatch_copy_8"/>
    <linearGradient id="New_Gradient_Swatch_copy_8-5" data-name="New Gradient Swatch copy 8" x1="376.82" y1="172.06" x2="426.82" y2="199.31" xlink:href="#New_Gradient_Swatch_copy_8"/>
    <linearGradient id="linear-gradient-14" x1="-2254.03" y1="2502.82" x2="-2162.68" y2="2502.82" gradientTransform="translate(4753.61 -101.59) rotate(30) skewX(-30)" xlink:href="#linear-gradient-13"/>
    <linearGradient id="New_Gradient_Swatch_copy_17" data-name="New Gradient Swatch copy 17" x1="-1449.46" y1="249.32" x2="-1475.78" y2="214.05" gradientTransform="translate(1922.65)" gradientUnits="userSpaceOnUse">
      <stop offset=".04" stop-color="#f7aa90"/>
      <stop offset=".23" stop-color="#f9b996"/>
      <stop offset=".61" stop-color="#fee1a6"/>
      <stop offset=".63" stop-color="#ffe4a7"/>
      <stop offset=".87" stop-color="#f7aa90"/>
    </linearGradient>
    <linearGradient id="New_Gradient_Swatch_copy_8-6" data-name="New Gradient Swatch copy 8" x1="412.61" y1="244.81" x2="498.83" y2="225.48" gradientTransform="translate(180.95 -197.35) rotate(30.31)" xlink:href="#New_Gradient_Swatch_copy_8"/>
    <radialGradient id="radial-gradient-2" cx="-1458.16" cy="232.87" fx="-1458.16" fy="232.87" r="16.45" gradientTransform="translate(1922.65)" gradientUnits="userSpaceOnUse">
      <stop offset="0" stop-color="#fff"/>
      <stop offset=".07" stop-color="#d8d8d8"/>
      <stop offset=".16" stop-color="#a5a5a5"/>
      <stop offset=".26" stop-color="#797979"/>
      <stop offset=".37" stop-color="#545454"/>
      <stop offset=".47" stop-color="#353535"/>
      <stop offset=".59" stop-color="#1d1d1d"/>
      <stop offset=".7" stop-color="#0d0d0d"/>
      <stop offset=".84" stop-color="#030303"/>
      <stop offset="1" stop-color="#000"/>
    </radialGradient>
    <linearGradient id="linear-gradient-15" x1="454.78" y1="318.05" x2="476.84" y2="311.44" xlink:href="#linear-gradient"/>
    <radialGradient id="radial-gradient-3" cx="465.47" cy="311.04" fx="465.47" fy="311.04" r="22.4" gradientTransform="matrix(1, 0, 0, 1, 0, 0)" xlink:href="#radial-gradient-2"/>
    <linearGradient id="linear-gradient-16" x1="454.78" y1="313.42" x2="476.84" y2="306.81" xlink:href="#linear-gradient"/>
    <radialGradient id="radial-gradient-4" cx="465.47" cy="306.41" fx="465.47" fy="306.41" r="22.4" gradientTransform="matrix(1, 0, 0, 1, 0, 0)" xlink:href="#radial-gradient-2"/>
    <linearGradient id="linear-gradient-17" x1="454.78" y1="308.68" x2="476.84" y2="302.07" xlink:href="#linear-gradient"/>
    <radialGradient id="radial-gradient-5" cx="465.47" cy="301.67" fx="465.47" fy="301.67" r="22.4" gradientTransform="matrix(1, 0, 0, 1, 0, 0)" xlink:href="#radial-gradient-2"/>
    <linearGradient id="linear-gradient-18" x1="417.45" y1="339.49" x2="414.77" y2="310.39" gradientUnits="userSpaceOnUse">
      <stop offset=".04" stop-color="#ffba78"/>
      <stop offset=".4" stop-color="#fec986"/>
      <stop offset="1" stop-color="#feeca8"/>
    </linearGradient>
    <linearGradient id="linear-gradient-19" x1="426.21" y1="312.45" x2="406.84" y2="336.41" xlink:href="#linear-gradient-18"/>
    <radialGradient id="radial-gradient-6" cx="398.83" cy="326.22" fx="398.83" fy="326.22" r="3.56" gradientTransform="matrix(1, 0, 0, 1, 0, 0)" xlink:href="#radial-gradient-2"/>
    <radialGradient id="radial-gradient-7" cx="432.04" cy="329.46" fx="432.04" fy="329.46" r="4.4" gradientTransform="matrix(1, 0, 0, 1, 0, 0)" xlink:href="#radial-gradient-2"/>
    <radialGradient id="radial-gradient-8" cx="412.81" cy="337.72" fx="412.81" fy="337.72" r="10.04" gradientTransform="matrix(1, 0, 0, 1, 0, 0)" xlink:href="#radial-gradient-2"/>
    <linearGradient id="linear-gradient-20" x1="394.24" y1="50.88" x2="391.56" y2="21.77" gradientTransform="translate(4.13 337.32) rotate(-51.02)" xlink:href="#linear-gradient-18"/>
    <linearGradient id="linear-gradient-21" x1="403" y1="23.84" x2="383.62" y2="47.79" gradientTransform="translate(4.13 337.32) rotate(-51.02)" xlink:href="#linear-gradient-18"/>
    <radialGradient id="radial-gradient-9" cx="375.61" cy="37.6" fx="375.61" fy="37.6" r="3.56" gradientTransform="translate(4.13 337.32) rotate(-51.02)" xlink:href="#radial-gradient-2"/>
    <radialGradient id="radial-gradient-10" cx="408.82" cy="40.84" fx="408.82" fy="40.84" r="4.4" gradientTransform="translate(4.13 337.32) rotate(-51.02)" xlink:href="#radial-gradient-2"/>
    <radialGradient id="radial-gradient-11" cx="389.59" cy="49.1" fx="389.59" fy="49.1" r="10.04" gradientTransform="translate(4.13 337.32) rotate(-51.02)" xlink:href="#radial-gradient-2"/>
  </defs>
  <g isolation="isolate">
    <g id="Layer_1" data-name="Layer 1">
      <g>
        <path d="m127.41,250.27l2.54,6.23,2.53-6.23h.73l-2.96,7.1h-.61l-2.96-7.1h.73Z" fill="#fff"/>
        <path d="m134.34,251.07v-1h.68v1h-.68Zm0,6.3v-5.21h.68v5.21h-.68Z" fill="#fff"/>
        <path d="m139.02,257.46c-.38,0-.73-.07-1.04-.21-.32-.14-.59-.34-.83-.59-.23-.25-.41-.54-.54-.87-.13-.33-.2-.68-.2-1.05s.07-.71.2-1.04c.13-.32.31-.61.54-.85.23-.24.5-.44.83-.58.32-.14.67-.21,1.04-.21s.73.07,1.04.21c.32.14.59.34.81.58.23.25.4.53.53.85.13.32.19.66.19,1.02v.16c0,.05,0,.09-.01.11h-4.46c.02.28.08.54.2.78.11.24.25.44.42.62.17.17.37.31.6.4.22.1.46.15.71.15.17,0,.33-.02.5-.07.17-.05.32-.11.46-.19.14-.08.27-.18.38-.29.11-.12.2-.25.26-.39l.59.16c-.08.19-.19.37-.34.53-.15.16-.32.29-.51.41-.19.12-.41.21-.64.27-.23.06-.48.09-.73.09Zm1.92-2.98c-.02-.28-.09-.54-.2-.76-.11-.23-.25-.43-.42-.6-.17-.17-.37-.3-.59-.39-.22-.09-.46-.14-.71-.14s-.49.05-.72.14c-.23.09-.42.22-.6.39-.17.17-.31.37-.41.6-.1.23-.17.49-.19.76h3.83Z" fill="#fff"/>
        <path d="m149.31,252.16h.67l-2.24,5.21h-.56l-1.12-2.66-1.11,2.66h-.56l-2.24-5.21h.66l1.9,4.51.99-2.38-.89-2.12h.57l.68,1.7.68-1.7h.58l-.89,2.12.99,2.38,1.89-4.51Z" fill="#fff"/>
        <path d="m153.8,257.37v-7.1h2.41c.57,0,1.06.09,1.49.28.42.19.78.44,1.06.76.28.32.5.69.64,1.12.14.43.21.89.21,1.38,0,.54-.08,1.03-.24,1.46-.16.44-.39.81-.68,1.12-.3.31-.65.55-1.07.72-.42.17-.88.25-1.41.25h-2.41Zm5.11-3.56c0-.43-.06-.82-.18-1.18-.12-.36-.29-.67-.53-.92-.23-.26-.51-.46-.84-.6-.33-.14-.72-.22-1.15-.22h-1.71v5.86h1.71c.44,0,.83-.08,1.17-.22.34-.15.62-.36.84-.62.23-.26.4-.57.52-.93.12-.36.17-.75.17-1.16Z" fill="#fff"/>
        <path d="m163.31,257.46c-.38,0-.73-.07-1.04-.21-.32-.14-.59-.34-.83-.59-.23-.25-.42-.54-.54-.87-.13-.33-.2-.68-.2-1.05s.07-.71.2-1.04c.13-.32.31-.61.54-.85.23-.24.5-.44.83-.58.32-.14.67-.21,1.04-.21s.73.07,1.04.21c.32.14.59.34.81.58.23.25.4.53.53.85.13.32.19.66.19,1.02v.16c0,.05,0,.09-.01.11h-4.46c.02.28.08.54.2.78.11.24.25.44.42.62.17.17.37.31.6.4.22.1.46.15.71.15.17,0,.33-.02.5-.07.17-.05.32-.11.46-.19.14-.08.27-.18.38-.29.11-.12.2-.25.26-.39l.59.16c-.08.19-.19.37-.34.53-.15.16-.32.29-.51.41-.19.12-.41.21-.64.27-.23.06-.48.09-.73.09Zm1.92-2.98c-.02-.28-.08-.54-.2-.76-.11-.23-.25-.43-.42-.6-.17-.17-.37-.3-.59-.39-.22-.09-.46-.14-.71-.14s-.49.05-.72.14c-.23.09-.42.22-.6.39-.17.17-.31.37-.41.6-.1.23-.16.49-.19.76h3.83Z" fill="#fff"/>
        <path d="m174.93,257.37h-.68v-2.91c0-.61-.1-1.05-.29-1.34-.19-.29-.48-.43-.86-.43-.2,0-.39.04-.56.11-.18.07-.34.18-.49.31-.15.13-.28.29-.4.47-.11.18-.2.38-.26.61v3.18h-.68v-2.91c0-.62-.09-1.07-.28-1.35-.19-.28-.47-.42-.86-.42s-.74.14-1.05.41c-.31.27-.53.63-.66,1.08v3.19h-.68v-5.21h.62v1.18c.21-.4.49-.71.84-.93s.73-.34,1.15-.34.79.12,1.05.37c.26.25.42.57.49.97.49-.89,1.16-1.34,2.01-1.34.29,0,.54.05.75.16.2.11.37.26.49.46.12.2.21.43.27.71.06.28.08.58.08.92v3.05Z" fill="#fff"/>
        <path d="m178.84,257.46c-.38,0-.73-.07-1.04-.21-.31-.14-.58-.34-.81-.58-.23-.25-.41-.53-.54-.86-.13-.33-.19-.67-.19-1.03s.07-.71.2-1.04c.13-.33.31-.61.54-.86.23-.25.5-.44.82-.59.31-.15.66-.22,1.03-.22s.72.07,1.04.22c.32.15.59.34.82.59.23.25.41.53.54.86.13.33.19.67.19,1.04s-.06.7-.19,1.03c-.13.33-.3.61-.54.86-.23.25-.5.44-.82.58-.32.14-.66.21-1.04.21Zm-1.89-2.68c0,.29.05.57.15.82.1.25.23.47.4.66.17.19.37.34.6.45.23.11.47.16.73.16s.5-.05.74-.17c.23-.11.43-.26.6-.45.17-.19.31-.41.41-.67.1-.25.15-.53.15-.82s-.05-.56-.15-.82c-.1-.26-.24-.48-.41-.67-.17-.19-.37-.34-.6-.45-.23-.11-.47-.17-.74-.17s-.5.06-.73.17c-.23.11-.43.26-.6.46-.17.19-.31.42-.41.67-.1.26-.15.53-.15.83Z" fill="#fff"/>
      </g>
      <g>
        <g>
          <g opacity=".2">
            <path d="m360.96,338.16c-5.22,0-9.95-1.14-13.69-3.3l-144.96-83.69c-4.99-2.88-7.85-7.44-7.85-12.51,0-5.56,3.45-10.73,9.46-14.2l82.26-47.5c4.72-2.72,10.62-4.23,16.62-4.23,5.22,0,9.95,1.14,13.69,3.3l144.96,83.69c4.99,2.88,7.85,7.44,7.85,12.51,0,5.56-3.45,10.73-9.46,14.2l-82.26,47.5c-4.72,2.72-10.62,4.23-16.62,4.23Z" opacity="0"/>
            <path d="m286.55,177.59c4.71-2.72,10.64-4.17,16.57-4.11,2.39.03,4.67.34,6.79.83,2.28.53,4.94,1.61,6.77,2.67l144.4,83.37c4.97,2.87,7.56,7.41,7.26,12.35-.08,1.36-.4,2.69-.87,4-1.26,3.53-4.83,7.29-8.89,9.63l-81.1,46.82c-1.03.59-2.39,1.27-3.53,1.74-3.9,1.61-8.33,2.51-12.82,2.53-5.13.03-9.82-1.07-13.5-3.2l-144.96-83.69c-4.98-2.87-7.56-7.43-7.23-12.38.08-1.17.33-2.32.68-3.45,1.16-3.74,4.86-7.74,9.12-10.19l81.29-46.93Z" opacity=".09"/>
            <path d="m286.91,178.22c4.7-2.71,10.66-4.12,16.53-3.99,2.39.06,4.65.43,6.74.95s5.05,1.8,6.7,2.75l143.85,83.05c4.94,2.85,7.27,7.38,6.66,12.19-.16,1.3-.58,2.55-1.07,3.81-1.23,3.14-5.34,7.13-9,9.24l-79.93,46.15c-.93.53-2.44,1.31-3.47,1.73-3.83,1.6-8.19,2.54-12.61,2.59-5.05.05-9.7-1.01-13.31-3.09l-144.96-83.69c-4.97-2.87-7.26-7.42-6.61-12.24.15-1.12.5-2.2.88-3.29,1.16-3.33,5.45-7.58,9.28-9.79l80.32-46.37Z" opacity=".18"/>
            <path d="m287.28,178.85c4.68-2.7,10.67-4.07,16.48-3.87,2.38.09,4.62.53,6.68,1.06,1.81.47,5.16,1.99,6.63,2.84l143.3,82.73c4.92,2.84,6.99,7.34,6.07,12.03-.24,1.24-.75,2.41-1.28,3.62-1.18,2.75-5.85,6.98-9.1,8.85l-78.76,45.47c-.82.48-2.5,1.34-3.4,1.73-3.76,1.6-8.05,2.57-12.4,2.65-4.97.08-9.58-.94-13.13-2.99l-144.96-83.69c-4.95-2.86-6.98-7.4-5.98-12.11.23-1.06.66-2.07,1.07-3.13,1.13-2.92,6.03-7.43,9.44-9.39l79.34-45.81Z" opacity=".27"/>
            <path d="m287.64,179.48c4.67-2.7,10.69-4.02,16.43-3.75,2.38.12,4.59.62,6.63,1.18,1.58.44,5.28,2.18,6.56,2.92l142.75,82.42c4.9,2.83,6.71,7.3,5.47,11.87-.32,1.17-.93,2.26-1.48,3.44-1.11,2.37-6.36,6.82-9.21,8.46l-77.59,44.8c-.72.42-2.55,1.38-3.34,1.72-3.69,1.59-7.91,2.6-12.19,2.7-4.89.11-9.45-.87-12.94-2.89l-144.96-83.69c-4.94-2.85-6.71-7.38-5.36-11.98.3-1.01.82-1.94,1.26-2.97,1.08-2.52,6.62-7.27,9.6-8.99l78.37-45.25Z" opacity=".36"/>
            <path d="m288,180.1c4.66-2.69,10.71-3.97,16.38-3.63,2.37.15,4.56.71,6.57,1.3,1.35.39,5.39,2.37,6.49,3l142.2,82.1c4.87,2.81,6.45,7.26,4.87,11.71-.39,1.11-1.1,2.11-1.68,3.25-1.02,2-6.87,6.67-9.31,8.07l-76.42,44.12c-.62.36-2.61,1.42-3.28,1.72-3.62,1.59-7.77,2.64-11.98,2.76-4.81.14-9.33-.81-12.75-2.78l-144.96-83.69c-4.93-2.85-6.44-7.36-4.74-11.84.36-.95.98-1.81,1.45-2.81,1-2.12,7.2-7.12,9.76-8.59l77.4-44.69Z" opacity=".45"/>
            <path d="m288.37,180.73c4.65-2.68,10.72-3.92,16.33-3.52,2.36.18,4.53.81,6.51,1.41,1.12.34,5.5,2.56,6.42,3.09l141.65,81.78c4.85,2.8,6.2,7.22,4.28,11.55-.46,1.05-1.06,2.09-1.89,3.07-.58,1.78-7.38,6.51-9.41,7.68l-75.26,43.45c-.51.3-2.66,1.46-3.22,1.71-3.55,1.58-7.63,2.67-11.76,2.81-4.73.16-9.2-.74-12.56-2.68l-144.96-83.69c-4.92-2.84-6.19-7.34-4.11-11.71.43-.9.95-1.8,1.64-2.65.52-1.89,7.79-6.96,9.92-8.19l76.42-44.12Z" opacity=".55"/>
            <path d="m288.73,181.36c4.63-2.68,10.74-3.86,16.29-3.4,2.36.21,4.5.9,6.46,1.53.89.29,5.61,2.75,6.35,3.17l141.1,81.46c4.83,2.79,5.95,7.19,3.68,11.4-.53.98-1.2,1.97-2.09,2.88-.46,1.43-7.89,6.35-9.52,7.29l-74.09,42.78c-.41.24-2.71,1.5-3.16,1.71-3.48,1.58-7.48,2.7-11.55,2.87-4.64.19-9.08-.67-12.38-2.58l-144.96-83.69c-4.91-2.83-5.95-7.33-3.49-11.57.49-.85,1.08-1.7,1.83-2.49.42-1.51,8.37-6.8,10.08-7.79l75.45-43.56Z" opacity=".64"/>
            <path d="m289.09,181.99c4.62-2.67,10.75-3.81,16.24-3.28,2.35.24,4.46.99,6.4,1.65.67.22,5.73,2.93,6.28,3.25l140.54,81.14c4.8,2.77,5.72,7.16,3.09,11.24-.6.92-1.34,1.84-2.29,2.69-.35,1.07-8.4,6.2-9.62,6.9l-72.92,42.1c-.31.18-2.76,1.55-3.1,1.7-3.41,1.58-7.34,2.73-11.34,2.92-4.56.22-8.95-.6-12.19-2.47l-144.96-83.69c-4.89-2.83-5.72-7.32-2.86-11.44.55-.79,1.21-1.59,2.02-2.33.31-1.13,8.96-6.65,10.23-7.39l74.48-43Z" opacity=".73"/>
            <path d="m289.45,182.62c4.61-2.66,10.77-3.76,16.19-3.16,2.35.26,4.43,1.08,6.35,1.76.44.16,5.84,3.12,6.21,3.34l139.99,80.82c4.78,2.76,5.5,7.15,2.49,11.08-.66.86-1.48,1.72-2.49,2.51-.23.71-8.91,6.04-9.72,6.51l-71.75,41.43c-.21.12-2.82,1.59-3.04,1.7-3.34,1.57-7.2,2.76-11.13,2.98-4.48.25-8.83-.54-12-2.37l-144.96-83.69c-4.88-2.82-5.5-7.33-2.24-11.31.61-.75,1.34-1.49,2.22-2.17.21-.75,9.54-6.49,10.39-6.99l73.5-42.44Z" opacity=".82"/>
            <path d="m289.82,183.24c4.6-2.65,10.79-3.71,16.14-3.04,2.34.29,4.39,1.18,6.29,1.88.22.08,5.95,3.31,6.14,3.42l139.44,80.51c4.76,2.75,5.28,7.14,1.89,10.92-.73.81-1.62,1.6-2.7,2.32-.12.36-9.42,5.89-9.83,6.12l-70.58,40.75c-.1.06-2.87,1.64-2.98,1.69-3.27,1.57-7.06,2.79-10.92,3.03-4.4.27-8.7-.47-11.82-2.27l-144.96-83.69c-4.87-2.81-5.29-7.35-1.62-11.17.67-.7,1.47-1.38,2.41-2.01.1-.38,10.13-6.34,10.55-6.58l72.53-41.87Z" opacity=".91"/>
            <path d="m351.27,327.95l-144.96-83.69c-5.72-3.3-5.01-9.08,1.6-12.89l82.26-47.5c6.61-3.82,16.61-4.23,22.33-.93l144.96,83.69c5.72,3.3,5.01,9.08-1.6,12.89l-82.26,47.5c-6.61,3.82-16.61,4.23-22.33.93Z"/>
          </g>
          <path d="m351.27,327.82l-144.96-83.69c-2.55-1.47-3.82-3.44-3.86-5.5,0-.07,0-7.11,0-7.18.05-2.51,1.9,1.85,5.47-.22l82.26-47.5c6.61-3.82,16.61-4.23,22.33-.93l144.96,83.69c1.91,1.1,3.3-3.58,3.79-2.09.17.5.06,7.07.07,7.58.05,2.57-1.8,5.29-5.47,7.4l-82.26,47.5c-6.61,3.82-16.61,4.23-22.33.93Z" fill="url(#linear-gradient-2)"/>
          <path d="m351.27,320.77l-144.96-83.69c-5.72-3.3-5.01-9.08,1.6-12.89l82.26-47.5c6.61-3.82,16.61-4.23,22.33-.93l144.96,83.69c5.72,3.3,5.01,9.08-1.6,12.89l-82.26,47.5c-6.61,3.82-16.61,4.23-22.33.93Z" fill="url(#linear-gradient-3)"/>
          <path d="m360.97,320.11c-3.26,0-6.19-.65-8.25-1.84l-144.96-83.69c-.9-.52-2.42-1.62-2.42-3.09s1.5-3.33,4.02-4.79l82.26-47.5c3.05-1.76,7.13-2.77,11.19-2.77,3.26,0,6.19.66,8.25,1.84l144.95,83.69c.9.52,2.42,1.62,2.42,3.09s-1.5,3.33-4.02,4.79l-82.26,47.5c-3.05,1.76-7.13,2.77-11.19,2.77Z" fill="url(#linear-gradient-4)"/>
          <path d="m455.86,271.15l-82.27,47.5c-6.61,3.82-16.61,4.23-22.33.93l-144.96-83.69c-2.37-1.37-3.62-3.17-3.82-5.07-.3,2.34.95,4.61,3.82,6.27l144.96,83.69c5.72,3.3,15.72,2.89,22.33-.93l82.27-47.5c3.87-2.23,5.7-5.13,5.42-7.82-.3,2.33-2.13,4.72-5.42,6.62Z" fill="#fff"/>
          <ellipse cx="286.91" cy="206.79" rx="36.19" ry="21.37" transform="translate(-51.66 104.57) rotate(-18.98)" fill="url(#New_Gradient_Swatch_copy)" mix-blend-mode="color-dodge"/>
          <path d="m377.03,289.94l-117.71-67.96c-2.36-1.36-2.06-3.74.66-5.31l44.19-25.52c2.72-1.57,6.84-1.74,9.2-.38l117.71,67.96c2.36,1.36,2.06,3.74-.66,5.31l-44.19,25.52c-2.72,1.57-6.84,1.74-9.2.38Z" fill="url(#linear-gradient-5)"/>
          <path d="m306.75,196.12l7.54,4.35c.96.55,2.51.56,3.46,0,.95-.55.95-1.45-.01-2l-7.54-4.36c-.96-.55-2.51-.56-3.46,0-.95.55-.95,1.45.01,2Zm12.91,7.46l3.57,2.06c.96.55,2.51.56,3.46,0,.95-.55.95-1.45-.01-2l-3.57-2.06c-.96-.55-2.51-.56-3.46,0-.95.55-.95,1.45.01,2Zm8.94,5.16l3.57,2.06c.96.55,2.51.56,3.46,0,.95-.55.95-1.45-.01-2l-3.57-2.06c-.96-.55-2.51-.56-3.46,0-.95.55-.95,1.45.01,2Zm8.94,5.16l3.57,2.06c.96.55,2.51.56,3.46,0,.95-.55.95-1.45-.01-2l-3.57-2.06c-.96-.55-2.51-.56-3.46,0-.95.55-.95,1.45.01,2Zm8.94,5.16l3.57,2.06c.96.55,2.51.56,3.46,0,.95-.55.95-1.45-.01-2l-3.57-2.06c-.96-.55-2.51-.56-3.46,0-.95.55-.95,1.45.01,2Zm8.94,5.16l3.57,2.06c.96.55,2.51.56,3.46,0s.95-1.45-.01-2l-3.57-2.06c-.96-.55-2.51-.56-3.46,0-.95.55-.95,1.45.01,2Zm8.94,5.16l3.57,2.06c.96.55,2.51.56,3.46,0,.95-.55.95-1.45-.01-2l-3.57-2.06c-.96-.55-2.51-.56-3.46,0-.95.55-.95,1.45.01,2Zm8.94,5.16l3.57,2.06c.96.55,2.51.56,3.46,0s.95-1.45-.01-2l-3.57-2.06c-.96-.55-2.51-.56-3.46,0-.95.55-.95,1.45.01,2Zm8.94,5.16l3.57,2.06c.96.55,2.51.56,3.46,0,.95-.55.95-1.45-.01-2l-3.57-2.06c-.96-.55-2.51-.56-3.46,0-.95.55-.95,1.45.01,2Zm8.94,5.16l3.57,2.06c.96.55,2.51.56,3.46,0,.95-.55.95-1.45-.01-2l-3.57-2.06c-.96-.55-2.51-.56-3.46,0-.95.55-.95,1.45.01,2Zm8.94,5.16l3.57,2.06c.96.55,2.51.56,3.46,0,.95-.55.95-1.45-.01-2l-3.57-2.06c-.96-.55-2.51-.56-3.46,0s-.95,1.45.01,2Zm8.94,5.16l3.57,2.06c.96.55,2.51.56,3.46,0,.95-.55.95-1.45-.01-2l-3.57-2.06c-.96-.55-2.51-.56-3.46,0-.95.55-.95,1.45.01,2Zm9.13,5.27l3.57,2.06c.96.55,2.51.56,3.46,0,.95-.55.95-1.45-.01-2l-3.57-2.06c-.96-.55-2.51-.56-3.46,0-.95.55-.95,1.45.01,2Zm-119.54-59.45l3.09,1.79c1.09.63,2.86.63,3.94,0l3.07-1.77c1.08-.63,1.08-1.65-.01-2.28l-3.09-1.79c-1.09-.63-2.86-.63-3.94,0l-3.07,1.77c-1.08.63-1.08,1.65.01,2.28Zm15.98,6.96l3.07-1.77c1.08-.63,1.08-1.65-.01-2.28l-3.09-1.79c-1.09-.63-2.86-.63-3.94,0l-3.07,1.77c-1.08.63-1.08,1.65.01,2.28l3.09,1.79c1.09.63,2.86.63,3.94,0Zm1.91,3.37l3.09,1.79c1.09.63,2.86.63,3.94,0l3.07-1.77c1.08-.63,1.08-1.65-.01-2.28l-3.09-1.79c-1.09-.63-2.86-.63-3.94,0l-3.07,1.77c-1.08.63-1.08,1.65.01,2.28Zm8.94,5.16l3.09,1.79c1.09.63,2.86.63,3.94,0l3.07-1.77c1.08-.63,1.08-1.65-.01-2.28l-3.09-1.79c-1.09-.63-2.86-.63-3.94,0l-3.07,1.77c-1.08.63-1.08,1.65.01,2.28Zm19.04,2.91l-3.09-1.79c-1.09-.63-2.86-.63-3.94,0l-3.07,1.77c-1.08.63-1.08,1.65.01,2.28l3.09,1.79c1.09.63,2.86.63,3.94,0l3.07-1.77c1.08-.63,1.08-1.65-.01-2.28Zm8.94,5.16l-3.09-1.79c-1.09-.63-2.86-.63-3.94,0l-3.07,1.77c-1.08.63-1.08,1.65.01,2.28l3.09,1.79c1.09.63,2.86.63,3.94,0l3.07-1.77c1.08-.63,1.08-1.65-.01-2.28Zm8.94,5.16l-3.09-1.79c-1.09-.63-2.86-.63-3.94,0l-3.07,1.77c-1.08.63-1.08,1.65.01,2.28l3.09,1.79c1.09.63,2.86.63,3.94,0l3.07-1.77c1.08-.63,1.08-1.65-.01-2.28Zm8.94,5.16l-3.09-1.79c-1.09-.63-2.86-.63-3.94,0l-3.07,1.77c-1.08.63-1.08,1.65.01,2.28l3.09,1.79c1.09.63,2.86.63,3.94,0l3.07-1.77c1.08-.63,1.08-1.65-.01-2.28Zm8.94,5.16l-3.09-1.79c-1.09-.63-2.86-.63-3.94,0l-3.07,1.77c-1.08.63-1.08,1.65.01,2.28l3.09,1.79c1.09.63,2.86.63,3.94,0l3.07-1.77c1.08-.63,1.08-1.65-.01-2.28Zm8.94,5.16l-3.09-1.79c-1.09-.63-2.86-.63-3.94,0l-3.07,1.77c-1.08.63-1.08,1.65.01,2.28l3.09,1.79c1.09.63,2.86.63,3.94,0l3.07-1.77c1.08-.63,1.08-1.65-.01-2.28Zm-1.15,7.42l3.09,1.79c1.09.63,2.86.63,3.94,0l3.07-1.77c1.08-.63,1.08-1.65-.01-2.28l-3.09-1.79c-1.09-.63-2.86-.63-3.94,0l-3.07,1.77c-1.08.63-1.08,1.65.01,2.28Zm19.04,2.91l-3.09-1.79c-1.09-.63-2.86-.63-3.94,0l-3.07,1.77c-1.08.63-1.08,1.65.01,2.28l3.09,1.79c1.09.63,2.86.63,3.94,0l3.07-1.77c1.08-.63,1.08-1.65-.01-2.28Zm13.1,7.56l-7.06-4.08c-1.09-.63-2.86-.63-3.94,0l-3.07,1.77c-1.08.63-1.08,1.65.01,2.28l7.06,4.08c1.09.63,2.86.63,3.94,0l3.07-1.77c1.08-.63,1.08-1.65-.01-2.28Zm-129.88-57.33l7.06,4.08c1.09.63,2.86.63,3.94,0l3.07-1.77c1.08-.63,1.08-1.65-.01-2.28l-7.06-4.08c-1.09-.63-2.86-.63-3.94,0l-3.07,1.77c-1.08.63-1.08,1.65.01,2.28Zm12.91,7.46l3.09,1.79c1.09.63,2.86.63,3.94,0l3.07-1.77c1.08-.63,1.08-1.65-.01-2.28l-3.09-1.79c-1.09-.63-2.86-.63-3.94,0l-3.07,1.77c-1.08.63-1.08,1.65.01,2.28Zm12.04,6.95c1.09.63,2.86.63,3.94,0l3.07-1.77c1.08-.63,1.08-1.65-.01-2.28l-3.09-1.79c-1.09-.63-2.86-.63-3.94,0l-3.07,1.77c-1.08.63-1.08,1.65.01,2.28l3.09,1.79Zm8.94,5.16c1.09.63,2.86.63,3.94,0l3.07-1.77c1.08-.63,1.08-1.65-.01-2.28l-3.09-1.79c-1.09-.63-2.86-.63-3.94,0l-3.07,1.77c-1.08.63-1.08,1.65.01,2.28l3.09,1.79Zm8.91-.67l-3.07,1.77c-1.08.63-1.08,1.65.01,2.28l3.09,1.79c1.09.63,2.86.63,3.94,0l3.07-1.77c1.08-.63,1.08-1.65-.01-2.28l-3.09-1.79c-1.09-.63-2.86-.63-3.94,0Zm9.13,5.06l-3.45,1.99c-.98.57-.98,1.49.01,2.06l3.47,2.01c.99.57,2.58.57,3.56,0l3.45-1.99c.98-.57.98-1.49-.01-2.06l-3.47-2.01c-.99-.57-2.58-.57-3.56,0Zm8.94,5.16l-3.45,1.99c-.98.57-.98,1.49.01,2.06l3.47,2.01c.99.57,2.58.57,3.56,0l3.45-1.99c.98-.57.98-1.49-.01-2.06l-3.47-2.01c-.99-.57-2.58-.57-3.56,0Zm8.94,5.16l-3.45,1.99c-.98.57-.98,1.49.01,2.06l3.47,2.01c.99.57,2.58.57,3.56,0l3.45-1.99c.98-.57.98-1.49-.01-2.06l-3.47-2.01c-.99-.57-2.58-.57-3.56,0Zm8.94,5.16l-3.45,1.99c-.98.57-.98,1.49.01,2.06l3.47,2.01c.99.57,2.58.57,3.56,0l3.45-1.99c.98-.57.98-1.49-.01-2.06l-3.47-2.01c-.99-.57-2.58-.57-3.56,0Zm8.94,5.16l-3.45,1.99c-.98.57-.98,1.49.01,2.06l3.47,2.01c.99.57,2.58.57,3.56,0l3.45-1.99c.98-.57.98-1.49-.01-2.06l-3.47-2.01c-.99-.57-2.58-.57-3.56,0Zm12.54,11.23l3.45-1.99c.98-.57.98-1.49-.01-2.06l-3.47-2.01c-.99-.57-2.58-.57-3.56,0l-3.45,1.99c-.98.57-.98,1.49.01,2.06l3.47,2.01c.99.57,2.58.57,3.56,0Zm8.94,5.16l3.45-1.99c.98-.57.98-1.49-.01-2.06l-3.47-2.01c-.99-.57-2.58-.57-3.56,0l-3.45,1.99c-.98.57-.98,1.49.01,2.06l3.47,2.01c.99.57,2.58.57,3.56,0Zm12.57,1.22l-3.47-2.01c-.99-.57-2.58-.57-3.56,0l-3.45,1.99c-.98.57-.98,1.49.01,2.06l3.47,2.01c.99.57,2.58.57,3.56,0l3.45-1.99c.98-.57.98-1.49-.01-2.06Zm-130.26-57.55l11.22,6.48c.99.57,2.58.57,3.56,0l3.45-1.99c.98-.57.98-1.49-.01-2.06l-11.22-6.48c-.99-.57-2.58-.57-3.56,0l-3.45,1.99c-.98.57-.98,1.49.01,2.06Zm16.69,9.63l3.47,2.01c.99.57,2.58.57,3.56,0l3.45-1.99c.98-.57.98-1.49-.01-2.06l-3.47-2.01c-.99-.57-2.58-.57-3.56,0l-3.45,1.99c-.98.57-.98,1.49.01,2.06Zm8.94,5.16l3.47,2.01c.99.57,2.58.57,3.56,0l3.45-1.99c.98-.57.98-1.49-.01-2.06l-3.47-2.01c-.99-.57-2.58-.57-3.56,0l-3.45,1.99c-.98.57-.98,1.49.01,2.06Zm8.94,5.16l3.47,2.01c.99.57,2.58.57,3.56,0l3.45-1.99c.98-.57.98-1.49-.01-2.06l-3.47-2.01c-.99-.57-2.58-.57-3.56,0l-3.45,1.99c-.98.57-.98,1.49.01,2.06Zm15.98,7.18l3.45-1.99c.98-.57.98-1.49-.01-2.06l-3.47-2.01c-.99-.57-2.58-.57-3.56,0l-3.45,1.99c-.98.57-.98,1.49.01,2.06l3.47,2.01c.99.57,2.58.57,3.56,0Zm8.94,5.16l3.45-1.99c.98-.57.98-1.49-.01-2.06l-3.47-2.01c-.99-.57-2.58-.57-3.56,0l-3.45,1.99c-.98.57-.98,1.49.01,2.06l3.47,2.01c.99.57,2.58.57,3.56,0Zm8.94,5.16l3.45-1.99c.98-.57.98-1.49-.01-2.06l-3.47-2.01c-.99-.57-2.58-.57-3.56,0l-3.45,1.99c-.98.57-.98,1.49.01,2.06l3.47,2.01c.99.57,2.58.57,3.56,0Zm8.94,5.16l3.45-1.99c.98-.57.98-1.49-.01-2.06l-3.47-2.01c-.99-.57-2.58-.57-3.56,0l-3.45,1.99c-.98.57-.98,1.49.01,2.06l3.47,2.01c.99.57,2.58.57,3.56,0Zm8.94,5.16l3.45-1.99c.98-.57.98-1.49-.01-2.06l-3.47-2.01c-.99-.57-2.58-.57-3.56,0l-3.45,1.99c-.98.57-.98,1.49.01,2.06l3.47,2.01c.99.57,2.58.57,3.56,0Zm8.94,5.16l3.45-1.99c.98-.57.98-1.49-.01-2.06l-3.47-2.01c-.99-.57-2.58-.57-3.56,0l-3.45,1.99c-.98.57-.98,1.49.01,2.06l3.47,2.01c.99.57,2.58.57,3.56,0Zm1.91,3.15l3.47,2.01c.99.57,2.58.57,3.56,0l3.45-1.99c.98-.57.98-1.49-.01-2.06l-3.47-2.01c-.99-.57-2.58-.57-3.56,0l-3.45,1.99c-.98.57-.98,1.49.01,2.06Zm24.78,6.22l-8.83-5.1c-.99-.57-2.58-.57-3.56,0l-3.45,1.99c-.98.57-.98,1.49.01,2.06l8.83,5.1c.99.57,2.58.57,3.56,0l3.45-1.99c.98-.57.98-1.49-.01-2.06Zm-130.22-57.3l15.91,9.19c1.11.64,2.92.65,4.02,0l2.99-1.73c1.11-.64,1.1-1.68-.01-2.32l-15.91-9.19c-1.11-.64-2.92-.65-4.02,0l-2.99,1.73c-1.11.64-1.1,1.68.01,2.32Zm21.85,12.61l3.01,1.74c1.11.64,2.92.65,4.02,0l2.99-1.73c1.11-.64,1.1-1.68-.01-2.32l-3.01-1.74c-1.11-.64-2.92-.65-4.02,0l-2.99,1.73c-1.11.64-1.1,1.68.01,2.32Zm8.94,5.16l3.01,1.74c1.11.64,2.92.65,4.02,0l2.99-1.73c1.11-.64,1.1-1.68-.01-2.32l-3.01-1.74c-1.11-.64-2.92-.65-4.02,0l-2.99,1.73c-1.11.64-1.1,1.68.01,2.32Zm8.94,5.16l3.01,1.74c1.11.64,2.92.65,4.02,0l2.99-1.73c1.11-.64,1.1-1.68-.01-2.32l-3.01-1.74c-1.11-.64-2.92-.65-4.02,0l-2.99,1.73c-1.11.64-1.1,1.68.01,2.32Zm8.94,5.16l3.01,1.74c1.11.64,2.92.65,4.02,0l2.99-1.73c1.11-.64,1.1-1.68-.01-2.32l-3.01-1.74c-1.11-.64-2.92-.65-4.02,0l-2.99,1.73c-1.11.64-1.1,1.68.01,2.32Zm8.94,5.16l3.01,1.74c1.11.64,2.92.65,4.02,0l2.99-1.73c1.11-.64,1.1-1.68-.01-2.32l-3.01-1.74c-1.11-.64-2.92-.65-4.02,0l-2.99,1.73c-1.11.64-1.1,1.68.01,2.32Zm8.94,5.16l3.01,1.74c1.11.64,2.92.65,4.02,0l2.99-1.73c1.11-.64,1.1-1.68-.01-2.32l-3.01-1.74c-1.11-.64-2.92-.65-4.02,0l-2.99,1.73c-1.11.64-1.1,1.68.01,2.32Zm8.94,5.16l3.01,1.74c1.11.64,2.92.65,4.02,0l2.99-1.73c1.11-.64,1.1-1.68-.01-2.32l-3.01-1.74c-1.11-.64-2.92-.65-4.02,0l-2.99,1.73c-1.11.64-1.1,1.68.01,2.32Zm8.94,5.16l3.01,1.74c1.11.64,2.92.65,4.02,0l2.99-1.73c1.11-.64,1.1-1.68-.01-2.32l-3.01-1.74c-1.11-.64-2.92-.65-4.02,0l-2.99,1.73c-1.11.64-1.1,1.68.01,2.32Zm8.94,5.16l3.01,1.74c1.11.64,2.92.65,4.02,0l2.99-1.73c1.11-.64,1.1-1.68-.01-2.32l-3.01-1.74c-1.11-.64-2.92-.65-4.02,0l-2.99,1.73c-1.11.64-1.1,1.68.01,2.32Zm8.94,5.16l3.01,1.74c1.11.64,2.92.65,4.02,0l2.99-1.73c1.11-.64,1.1-1.68-.01-2.32l-3.01-1.74c-1.11-.64-2.92-.65-4.02,0l-2.99,1.73c-1.11.64-1.1,1.68.01,2.32Zm19.16,2.97l-3.01-1.74c-1.11-.64-2.92-.65-4.02,0l-2.99,1.73c-1.11.64-1.1,1.68.01,2.32l3.01,1.74c1.11.64,2.92.65,4.02,0l2.99-1.73c1.11-.64,1.1-1.68-.01-2.32Zm-115.81-57.3l-6.98-4.03c-1.11-.64-2.92-.65-4.02,0l-2.99,1.73c-1.11.64-1.1,1.68.01,2.32l6.98,4.03c1.11.64,2.92.65,4.02,0l2.99-1.73c1.11-.64,1.1-1.68-.01-2.32Zm8.94,5.16l-3.01-1.74c-1.11-.64-2.92-.65-4.02,0l-2.99,1.73c-1.11.64-1.1,1.68.01,2.32l3.01,1.74c1.11.64,2.92.65,4.02,0l2.99-1.73c1.11-.64,1.1-1.68-.01-2.32Zm8.94,5.16l-3.01-1.74c-1.11-.64-2.92-.65-4.02,0l-2.99,1.73c-1.11.64-1.1,1.68.01,2.32l3.01,1.74c1.11.64,2.92.65,4.02,0l2.99-1.73c1.11-.64,1.1-1.68-.01-2.32Zm62.61,36.15l-56.68-32.72c-1.11-.64-2.92-.65-4.02,0l-2.99,1.73c-1.11.64-1.1,1.68.01,2.32l56.68,32.72c1.11.64,2.92.65,4.02,0l2.99-1.73c1.11-.64,1.1-1.68-.01-2.32Zm8.94,5.16l-3.01-1.74c-1.11-.64-2.92-.65-4.02,0l-2.99,1.73c-1.11.64-1.1,1.68.01,2.32l3.01,1.74c1.11.64,2.92.65,4.02,0l2.99-1.73c1.11-.64,1.1-1.68-.01-2.32Zm8.94,5.16l-3.01-1.74c-1.11-.64-2.92-.65-4.02,0l-2.99,1.73c-1.11.64-1.1,1.68.01,2.32l3.01,1.74c1.11.64,2.92.65,4.02,0l2.99-1.73c1.11-.64,1.1-1.68-.01-2.32Zm9.13,5.27l-3.01-1.74c-1.11-.64-2.92-.65-4.02,0l-2.99,1.73c-1.11.64-1.1,1.68.01,2.32l3.01,1.74c1.11.64,2.92.65,4.02,0l2.99-1.73c1.11-.64,1.1-1.68-.01-2.32Z" fill="url(#linear-gradient-6)" mix-blend-mode="screen" opacity=".3"/>
          <g>
            <path d="m455.17,258.34l-139.66-80.68c-5.41-3.12-9.79-11.5-9.79-18.71V49.39c0-7.21,4.38-10.52,9.79-7.4l139.66,80.68c5.41,3.12,9.79,11.5,9.79,18.71v109.56c0,7.21-4.38,10.52-9.79,7.4Z" fill="url(#linear-gradient-7)"/>
            <path d="m456.43,252.71l-138.17-79.81c-4.35-2.77-7.04-8.29-7.04-13.95V48.86c0-1.34,1.46-2.17,2.61-1.49.13.08.24.14.31.18l138.29,79.89c5.18,2.99,7.04,8.29,7.04,13.95v109.84c0,1.44-1.55,2.34-2.8,1.63-.1-.06-.18-.1-.23-.13Z" fill="url(#New_Gradient_Swatch_copy_26)"/>
            <path d="m452.42,127.43l-138.29-79.89c-.07-.04-.17-.1-.31-.18-1.16-.68-2.61.16-2.61,1.49v110.1c0,5.65,2.69,11.18,7.04,13.95l138.17,79.81c.05.03.13.07.23.13,1.25.71,2.8-.19,2.8-1.63v-109.84c0-5.65-1.86-10.96-7.04-13.95Zm5.94,123.79c0,.48-.4.77-.78.77-.13,0-.26-.03-.38-.1l-138.4-79.94c-3.93-2.5-6.49-7.61-6.49-12.99V48.86c0-.39.33-.64.64-.64.11,0,.22.03.32.09l138.6,80.07c5.37,3.09,6.49,8.77,6.49,12.99v109.84Z" fill="#bcbec0" mix-blend-mode="multiply"/>
            <path d="m457.94,121.2l-139.67-80.68c-2.14-1.24-4.12-1.46-5.73-.84-.2.08-2.93,1.53-3.13,1.64,0,0,0,0,0,0,1.67-.81,3.78-.66,6.09.67l139.66,80.68c5.41,3.12,9.79,11.5,9.79,18.71v109.56c0,4.5-1.71,7.48-4.31,8.33.21.01.48-.07.86-.29.12-.07,3.09-1.74,3.2-1.83,1.86-1.3,3.02-3.98,3.02-7.68v-109.56c0-7.21-4.38-15.58-9.79-18.71Z" fill="url(#linear-gradient-8)"/>
            <path d="m455.64,122.44l-139.66-80.68c-2.22-1.28-4.26-1.46-5.9-.75,1.4-.22,3.01.12,4.72,1.11l139.66,80.68c5.41,3.12,9.79,11.5,9.79,18.71v109.56c0,4.25-1.53,7.14-3.89,8.16,3.02-.48,5.07-3.58,5.07-8.51v-109.56c0-7.21-4.38-15.58-9.79-18.71Z" fill="url(#Radial_Gradient_1)" mix-blend-mode="screen"/>
          </g>
        </g>
        <g>
          <path d="m311.08,108.04l-32.47-18.96c-3.07-1.77-5.56.11-5.56,4.2v10.32c0,4.09,2.49,8.85,5.56,10.62l16.27,9.3,4.25,12.53,4.25-7.61,7.7,4.74c3.07,1.77,5.56-.11,5.56-4.2v-10.32c0-4.09-2.49-8.85-5.56-10.62Z" fill="url(#linear-gradient-9)"/>
          <polygon points="305.12 129.44 303.39 128.44 299.13 136.05 302.55 134.04 305.12 129.44" fill="url(#linear-gradient-10)"/>
          <path d="m313.95,106.36l-32.47-18.96c-1.31-.76-2.52-.84-3.47-.38l-.03-.03-3.04,1.78v.04c.99-.58,2.27-.54,3.67.27l32.47,18.96c3.07,1.77,5.56,6.53,5.56,10.62v10.32c0,1.99-.59,3.45-1.55,4.23l1.69-1.12c1.42-.82,2.72-2.08,2.72-4.79v-10.32c0-4.09-2.49-8.85-5.56-10.62Z" fill="url(#linear-gradient-11)"/>
          <path d="m311.4,107.78l-32.47-18.96c-1.52-.88-2.9-.86-3.91-.11.91-.35,2.03-.22,3.23.48l32.47,18.96c3.07,1.77,5.56,6.53,5.56,10.62v10.32c0,2.06-.63,3.56-1.65,4.31,1.41-.53,2.32-2.19,2.32-4.68v-10.32c0-4.09-2.49-8.85-5.56-10.62Z" fill="url(#Radial_Gradient_1-2)" mix-blend-mode="color-dodge"/>
          <path d="m318.78,109.82c2.21,3.42,2.43,7.22.48,8.48-1.95,1.26-5.32-.5-7.53-3.92-2.21-3.42-2.43-7.22-.48-8.48s5.32.5,7.53,3.92Z" fill="url(#radial-gradient)" mix-blend-mode="color-dodge"/>
          <g>
            <polygon points="296.05 105.75 300.45 108.27 300.45 106.97 296.05 104.45 296.05 105.75" fill="#fff"/>
            <polygon points="297.89 116.4 293.51 113.87 293.51 115.17 297.89 117.7 297.89 116.4" fill="#fff"/>
            <polygon points="297.65 109.47 297.65 108.17 292.77 105.4 292.77 106.7 297.65 109.47" fill="#fff"/>
            <polygon points="292.52 110.53 292.52 111.83 295 113.27 295 111.97 292.52 110.53" fill="#fff"/>
            <polygon points="288.76 112.47 288.76 111.17 284.73 108.89 284.73 110.19 288.76 112.47" fill="#fff"/>
            <polygon points="299.76 114.72 296.3 112.72 296.3 114.02 299.76 116.01 299.76 114.72" fill="#fff"/>
            <polygon points="294.79 109.21 294.79 110.51 296.84 111.68 296.84 110.38 294.79 109.21" fill="#fff"/>
            <polygon points="301.74 107.71 301.74 109.01 302.86 109.66 302.86 108.36 301.74 107.71" fill="#fff"/>
            <polygon points="293.49 109.77 293.49 108.47 289.31 106.09 289.31 107.39 293.49 109.77" fill="#fff"/>
            <polygon points="298.95 108.91 298.95 110.21 305.12 113.74 305.12 112.44 298.95 108.91" fill="#fff"/>
            <polygon points="291.24 111.09 291.24 109.8 285.99 106.86 285.99 108.15 291.24 111.09" fill="#fff"/>
            <polygon points="287.25 99.41 287.25 100.71 291.36 103.06 291.36 101.76 287.25 99.41" fill="#fff"/>
            <polygon points="294.75 103.7 292.66 102.51 292.66 103.81 294.75 105 294.75 103.7" fill="#fff"/>
            <polygon points="292.23 113.13 290.06 111.91 290.06 113.2 292.23 114.43 292.23 113.13" fill="#fff"/>
            <polygon points="303.96 118.44 309.57 121.7 309.57 120.4 303.96 117.14 303.96 118.44" fill="#fff"/>
            <polygon points="283.43 108.15 281.45 107.01 281.45 108.31 283.43 109.45 283.43 108.15" fill="#fff"/>
            <polygon points="277.39 93.96 277.39 95.25 286.2 100.28 286.2 98.98 277.39 93.96" fill="#fff"/>
            <polygon points="305.26 116.49 307.33 117.7 307.33 116.4 305.26 115.19 305.26 116.49" fill="#fff"/>
            <polygon points="306.41 114.48 314 118.77 314 117.47 306.41 113.18 306.41 114.48" fill="#fff"/>
            <polygon points="298.14 112.42 303.98 115.75 303.98 114.45 298.14 111.12 298.14 112.42" fill="#fff"/>
            <polygon points="304.16 109.1 304.16 110.4 308.81 113.06 308.81 111.76 304.16 109.1" fill="#fff"/>
            <polygon points="284.69 106.13 281.45 104.31 281.45 105.61 284.69 107.43 284.69 106.13" fill="#fff"/>
            <polygon points="302.68 116.4 301.06 115.46 301.06 116.76 302.68 117.7 302.68 116.4" fill="#fff"/>
            <polygon points="288.01 105.35 281.45 101.61 281.45 102.91 288.01 106.65 288.01 105.35" fill="#fff"/>
            <polygon points="291.81 115.51 291.81 116.8 293.87 117.98 293.87 116.68 291.81 115.51" fill="#fff"/>
            <polygon points="290.51 116.07 290.51 114.77 286.33 112.38 286.33 113.68 290.51 116.07" fill="#fff"/>
            <polygon points="302.28 122.78 304.36 123.99 304.36 122.69 302.28 121.48 302.28 122.78" fill="#fff"/>
            <polygon points="295.16 118.71 301.01 122.04 301.01 120.74 295.16 117.42 295.16 118.71" fill="#fff"/>
            <polygon points="285.03 111.64 278.47 107.91 278.47 109.2 285.03 112.94 285.03 111.64" fill="#fff"/>
            <polygon points="291.47 104.65 281.45 98.92 281.45 100.21 291.47 105.95 291.47 104.65" fill="#fff"/>
          </g>
        </g>
        <path d="m433.41,136.71l-99.34-56.45c-.25,13.22-.02,54.66-.1,68.2-.12,21.92-3.4,39.19-28.71,59-8.05,6.3-43.59,25.66-72.42,40.81-11.7,6.15-12.58,8.74-18.5,13.75-5.73,4.86-14.52,9.37-17.1,10.87l98.69,57.06c1.84-1.09,11.45-5.91,17.75-11.25,5.92-5.01,6.8-10.35,18.5-16.5,28.83-15.15,78.23-45.49,87-50.75,11.25-6.75,14.13-11,14.13-28.75,0-13.62-.16-73.02.1-86Z" fill="#231f20" mix-blend-mode="multiply" opacity=".2"/>
        <path d="m433.41,130.21l-99.34-56.45c-.25,13.22-.02,54.66-.1,68.2-.12,21.92-3.4,39.19-28.71,59-8.05,6.3-43.59,25.66-72.42,40.81-11.7,6.15-13.58,13.99-19.5,19-5.73,4.86-12.09,6.18-14.66,7.68l98.69,57.06c1.84-1.09,9.01-2.72,15.31-8.06,5.92-5.01,7.8-12.85,19.5-19,28.83-15.15,64.36-34.51,72.42-40.81,25.31-19.81,28.59-37.08,28.71-59,.07-13.62-.16-55.45.1-68.43Z" fill="url(#linear-gradient-12)"/>
        <g>
          <path d="m375.18,175.84c-.09,0-.17-.02-.25-.07l-.1-.06c-.24-.14-.32-.45-.18-.68,0-.02.02-.03.03-.05v-2.52c0-.28.22-.5.5-.5s.5.22.5.5v2.88c0,.18-.1.34-.25.43-.08.04-.16.07-.25.07Zm-2.7-1.56c-.09,0-.17-.02-.25-.07l-2.59-1.51c-.24-.14-.32-.44-.18-.68.14-.24.45-.32.68-.18l2.59,1.51c.24.14.32.44.18.68-.09.16-.26.25-.43.25Zm-5.19-3.01c-.09,0-.17-.02-.25-.07l-2.59-1.51c-.24-.14-.32-.44-.18-.68.14-.24.45-.32.68-.18l2.59,1.51c.24.14.32.44.18.68-.09.16-.26.25-.43.25Zm7.89-1.31c-.28,0-.5-.22-.5-.5v-3c0-.28.22-.5.5-.5s.5.22.5.5v3c0,.28-.22.5-.5.5Zm-13.08-1.7c-.09,0-.17-.02-.25-.07l-2.6-1.51c-.24-.14-.32-.44-.18-.68.14-.24.45-.32.68-.18l2.6,1.51c.24.14.32.44.18.68-.09.16-.26.25-.43.25Zm-5.19-3.01c-.09,0-.17-.02-.25-.07l-2.59-1.51c-.24-.14-.32-.44-.18-.68.14-.24.45-.32.68-.18l2.59,1.51c.24.14.32.44.18.68-.09.16-.26.25-.43.25Zm18.27-1.29c-.28,0-.5-.22-.5-.5v-3c0-.28.22-.5.5-.5s.5.22.5.5v3c0,.28-.22.5-.5.5Zm-23.46-1.72c-.09,0-.17-.02-.25-.07l-2.6-1.51c-.24-.14-.32-.44-.18-.68.14-.24.45-.32.68-.18l2.6,1.51c.24.14.32.44.18.68-.09.16-.26.25-.43.25Zm-5.19-3.01c-.09,0-.17-.02-.25-.07l-2.59-1.51c-.15-.09-.25-.25-.25-.43v-1.68c0-.28.22-.5.5-.5s.5.22.5.5v1.39l2.35,1.36c.24.14.32.44.18.68-.09.16-.26.25-.43.25Zm28.65-1.27c-.28,0-.5-.22-.5-.5v-3c0-.28.22-.5.5-.5s.5.22.5.5v3c0,.28-.22.5-.5.5Zm-31.24-4.92c-.28,0-.5-.22-.5-.5v-3c0-.28.22-.5.5-.5s.5.22.5.5v3c0,.28-.22.5-.5.5Zm31.24-1.08c-.28,0-.5-.22-.5-.5v-3c0-.28.22-.5.5-.5s.5.22.5.5v3c0,.28-.22.5-.5.5Zm-31.24-4.92c-.28,0-.5-.22-.5-.5v-3c0-.28.22-.5.5-.5s.5.22.5.5v3c0,.28-.22.5-.5.5Zm31.24-1.08c-.28,0-.5-.22-.5-.5v-.55l-1.62-.94c-.24-.14-.32-.44-.18-.68.14-.24.45-.32.68-.18l1.87,1.08c.15.09.25.25.25.43v.84c0,.28-.22.5-.5.5Zm-4.46-3.43c-.09,0-.17-.02-.25-.07l-2.59-1.51c-.24-.14-.32-.44-.18-.68.14-.24.45-.32.68-.18l2.59,1.51c.24.14.32.44.18.68-.09.16-.26.25-.43.25Zm-26.78-1.49c-.28,0-.5-.22-.5-.5v-3c0-.28.22-.5.5-.5s.5.22.5.5v3c0,.28-.22.5-.5.5Zm21.59-1.52c-.09,0-.17-.02-.25-.07l-2.6-1.51c-.24-.14-.32-.44-.18-.68.14-.24.45-.32.68-.18l2.6,1.51c.24.14.32.44.18.68-.09.16-.26.25-.43.25Zm-5.19-3.01c-.09,0-.17-.02-.25-.07l-2.59-1.51c-.24-.14-.32-.44-.18-.68.14-.24.45-.32.68-.18l2.59,1.51c.24.14.32.44.18.68-.09.16-.26.25-.43.25Zm-16.4-1.47c-.28,0-.5-.22-.5-.5v-3c0-.28.22-.5.5-.5s.5.22.5.5v3c0,.28-.22.5-.5.5Zm11.21-1.54c-.09,0-.17-.02-.25-.07l-2.59-1.51c-.24-.14-.32-.44-.18-.68.14-.24.45-.32.68-.18l2.59,1.51c.24.14.32.44.18.68-.09.16-.26.25-.43.25Zm-5.19-3.01c-.09,0-.17-.02-.25-.07l-2.59-1.51c-.24-.14-.32-.44-.18-.68.14-.24.45-.32.68-.18l2.59,1.51c.24.14.32.44.18.68-.09.16-.26.25-.43.25Zm-6.02-1.45c-.28,0-.5-.22-.5-.5v-2.04c0-.18.1-.34.25-.43.16-.09.35-.09.5,0l.83.48c.24.14.32.44.18.68-.14.24-.45.32-.68.18l-.08-.04v1.18c0,.28-.22.5-.5.5Z" fill="#b086cc"/>
          <path d="m423.18,187.84c-.28,0-.5-.22-.5-.5v-3c0-.28.22-.5.5-.5s.5.22.5.5v3c0,.28-.22.5-.5.5Zm-2.22-.82c-.08,0-.17-.02-.25-.07l-2.61-1.48c-.24-.14-.32-.44-.19-.68.14-.24.44-.32.68-.19l2.61,1.48c.24.14.32.44.19.68-.09.16-.26.25-.43.25Zm-5.21-2.97c-.08,0-.17-.02-.25-.07l-2.61-1.48c-.24-.14-.32-.44-.19-.68.14-.24.44-.32.68-.19l2.61,1.48c.24.14.32.44.19.68-.09.16-.26.25-.43.25Zm7.43-2.21c-.28,0-.5-.22-.5-.5v-3c0-.28.22-.5.5-.5s.5.22.5.5v3c0,.28-.22.5-.5.5Zm-12.65-.76c-.08,0-.17-.02-.25-.07l-2.61-1.48c-.24-.14-.32-.44-.19-.68.14-.24.44-.33.68-.19l2.61,1.48c.24.14.32.44.19.68-.09.16-.26.25-.43.25Zm-5.21-2.97c-.08,0-.17-.02-.25-.07l-2.61-1.48c-.24-.14-.32-.44-.19-.68.14-.24.44-.32.68-.19l2.61,1.48c.24.14.32.44.19.68-.09.16-.26.25-.43.25Zm17.86-2.28c-.28,0-.5-.22-.5-.5v-3c0-.28.22-.5.5-.5s.5.22.5.5v3c0,.28-.22.5-.5.5Zm-23.08-.69c-.08,0-.17-.02-.25-.07l-2.61-1.48c-.24-.14-.32-.44-.19-.68.14-.24.44-.32.68-.19l2.61,1.48c.24.14.32.44.19.68-.09.16-.26.25-.43.25Zm-5.21-2.97c-.08,0-.17-.02-.25-.07l-2.61-1.48c-.24-.14-.32-.44-.19-.68.14-.24.44-.32.68-.19l2.61,1.48c.24.14.32.44.19.68-.09.16-.26.25-.43.25Zm25.9-.95c-.08,0-.17-.02-.25-.07l-2.61-1.48c-.24-.14-.32-.44-.19-.68.14-.24.44-.32.68-.19l2.61,1.48c.24.14.32.44.19.68-.09.16-.26.25-.43.25Zm-31.12-2.02c-.08,0-.17-.02-.25-.07l-2.61-1.48c-.24-.14-.32-.44-.19-.68.14-.24.44-.32.68-.19l2.61,1.48c.24.14.32.44.19.68-.09.16-.26.25-.43.25Zm25.9-.95c-.08,0-.17-.02-.25-.07l-2.61-1.48c-.24-.14-.32-.44-.19-.68.14-.24.44-.32.68-.19l2.61,1.48c.24.14.32.44.19.68-.09.16-.26.25-.43.25Zm-31.12-2.02c-.08,0-.17-.02-.25-.07l-2.61-1.48c-.24-.14-.32-.44-.19-.68.14-.24.44-.32.68-.19l2.61,1.48c.24.14.32.44.19.68-.09.16-.26.25-.43.25Zm25.9-.95c-.08,0-.17-.02-.25-.07l-2.61-1.48c-.24-.14-.32-.44-.19-.68.14-.24.44-.32.68-.19l2.61,1.48c.24.14.32.44.19.68-.09.16-.26.25-.43.25Zm-30.51-2.37c-.28,0-.5-.22-.5-.5v-3c0-.28.22-.5.5-.5s.5.22.5.5v3c0,.28-.22.5-.5.5Zm25.3-.6c-.08,0-.17-.02-.25-.07l-2.61-1.48c-.24-.14-.32-.44-.19-.68.14-.24.44-.32.68-.19l2.61,1.48c.24.14.32.44.19.68-.09.16-.26.25-.43.25Zm-5.21-2.97c-.08,0-.17-.02-.25-.07l-2.61-1.48c-.24-.14-.32-.44-.19-.68.14-.24.44-.32.68-.19l2.61,1.48c.24.14.32.44.19.68-.09.16-.26.25-.43.25Zm-20.08-2.43c-.28,0-.5-.22-.5-.5v-3c0-.28.22-.5.5-.5s.5.22.5.5v3c0,.28-.22.5-.5.5Zm14.87-.54c-.08,0-.17-.02-.25-.07l-2.61-1.48c-.24-.14-.32-.44-.19-.68s.44-.32.68-.19l2.61,1.48c.24.14.32.44.19.68-.09.16-.26.25-.43.25Zm-5.21-2.97c-.08,0-.17-.02-.25-.07l-2.61-1.48c-.24-.14-.32-.44-.19-.68.14-.24.44-.32.68-.19l2.61,1.48c.24.14.32.44.19.68-.09.16-.26.25-.43.25Zm-9.66-2.5c-.28,0-.5-.22-.5-.5v-3c0-.28.22-.5.5-.5s.5.22.5.5v3c0,.28-.22.5-.5.5Zm4.44-.47c-.08,0-.17-.02-.25-.07l-2.61-1.48c-.24-.14-.32-.44-.19-.68.14-.24.44-.32.68-.19l2.61,1.48c.24.14.32.44.19.68-.09.16-.26.25-.43.25Z" fill="#b086cc"/>
          <g>
            <path d="m347.84,107.6c-.07-.12-.11-.24-.11-.36v-9.69l-2.84-1.64c-.1-.06-.19-.15-.26-.27-.07-.12-.11-.25-.11-.38v-1.32c0-.13.03-.22.1-.26.07-.04.16-.03.27.03l7.83,4.52c.11.07.2.16.28.28.07.12.11.25.11.38v1.32c0,.13-.04.21-.11.25-.07.04-.16.03-.28-.04l-2.82-1.63v9.7c0,.12-.03.2-.1.24-.07.04-.16.03-.27-.03l-1.44-.83c-.1-.06-.19-.15-.26-.27Z" fill="url(#New_Gradient_Swatch_copy_7-2)"/>
            <path d="m354.43,100.76c-.07-.12-.11-.24-.11-.36v-1.28c0-.13.04-.21.11-.26.07-.04.16-.03.26.03l1.41.81c.11.07.21.16.28.28.07.12.11.25.11.38v1.28c0,.12-.04.2-.12.23-.08.04-.17.03-.27-.03l-1.41-.81c-.1-.06-.19-.15-.26-.27Zm.06,10.68c-.07-.12-.11-.24-.11-.36v-8.3c0-.13.04-.21.11-.25.07-.03.16-.02.26.04l1.3.75c.1.06.19.15.26.27.07.12.11.24.11.36v8.3c0,.12-.04.2-.11.24-.07.04-.16.03-.26-.03l-1.3-.75c-.1-.06-.19-.15-.26-.27Z" fill="url(#New_Gradient_Swatch_copy_7-3)"/>
            <path d="m359.97,113.89c-.47-.83-.71-1.78-.71-2.86v-3.98l-1.21-.7c-.1-.06-.19-.15-.26-.27-.07-.12-.11-.24-.11-.36v-1.04c0-.12.04-.2.11-.24.07-.04.16-.03.26.03l1.21.7v-2.92c0-.13.04-.21.11-.25.07-.03.16-.02.26.04l1.27.73c.11.06.2.15.27.27.07.11.1.24.1.37v2.92l1.92,1.11c.1.06.19.15.26.27.07.12.11.24.11.36v1.04c0,.12-.04.2-.11.24-.07.04-.16.03-.26-.03l-1.92-1.11v3.78c0,.5.08.93.23,1.28.15.35.4.62.75.82l1.07.62c.11.06.2.15.27.27.07.11.1.24.1.37v1.11c0,.12-.03.2-.1.24-.07.04-.16.03-.27-.03l-1.26-.73c-.93-.54-1.63-1.22-2.1-2.05Z" fill="url(#New_Gradient_Swatch_copy_7-4)"/>
            <path d="m365.18,117.61c-.07-.12-.11-.24-.11-.36v-11.65c0-.13.04-.21.11-.25.07-.04.16-.02.26.04l1.29.74c.11.07.2.15.27.27.07.12.1.24.1.37v11.65c0,.12-.03.2-.1.24-.07.04-.16.03-.27-.03l-1.29-.74c-.1-.06-.19-.15-.26-.27Z" fill="url(#New_Gradient_Swatch_copy_7-5)"/>
            <path d="m369.86,119.49c-.67-1.14-1.02-2.41-1.07-3.82v-.45c-.01-1.46.32-2.43.99-2.89.67-.46,1.6-.34,2.78.34,1.22.7,2.15,1.66,2.81,2.89.66,1.22.99,2.54.99,3.95v.37c0,.12-.04.2-.11.24-.07.04-.16.03-.28-.04l-5.09-2.94v.14c.02.67.18,1.3.47,1.9.29.6.69,1.04,1.21,1.34.58.34,1.06.34,1.43.01.09-.08.16-.11.21-.11.05,0,.14.04.26.11l1.35.78c.09.05.17.13.24.23.07.1.1.2.1.3,0,.28-.15.53-.44.74-.29.21-.71.3-1.25.27-.54-.03-1.17-.25-1.89-.67-1.14-.66-2.05-1.56-2.72-2.7Zm4.39-1.9v-.04c0-.69-.15-1.33-.45-1.92-.3-.59-.71-1.04-1.23-1.34-.52-.3-.93-.33-1.23-.08-.3.25-.44.71-.44,1.41v.04l3.36,1.94Z" fill="url(#New_Gradient_Swatch_copy_7-6)"/>
          </g>
          <path d="m419.26,137.57v2.42l2.75,1.59v-2.42l-2.75-1.59Zm-.11,24.67l2.86,1.65v-2.42l-2.86-1.65v2.42Zm-28.82-35.74l-9.32-5.36v2.42l9.32,5.36v-2.42Zm26.55,17.69l3.28,1.89v-2.42l-3.28-1.89v2.42Zm-21.26-20.21l-7.35-4.24v2.42l7.35,4.24v-2.42Zm21.91,12.59l-6.85-3.93v2.42l6.85,3.93v-2.42Zm-8.58-4.93l-11.6-6.66v2.42l11.6,6.66v-2.42Zm-2.59,15.24l-11.93-6.85v2.42l11.93,6.85v-2.42Zm8.79-6.1l-15.43-8.85v2.42l15.43,8.85v-2.42Zm-14.99-3.02l-7.35-4.24v2.42l7.35,4.24v-2.42Zm-2.16-6.83l-5.94-3.43v2.42l5.94,3.43v-2.42Zm12.57,26.38l6.85,3.93v-2.42l-6.85-3.93v2.42Zm-2.48-7.01l8.83,5.08v-2.42l-8.83-5.08v2.42Zm-19.92-5.89l7.35,4.24v-2.42l-7.35-4.24v2.42Zm13.72-3.24l7.61,4.36v-2.42l-7.61-4.36v2.42Zm9.33,5.35l10.79,6.21v-2.42l-10.79-6.21v2.42Zm-18.52-7.49l-5.94-3.43v2.42l5.94,3.43v-2.42Zm-1.62-6.51l-10.08-5.79v2.42l10.08,5.79v-2.42Zm-11.9,6.73l7.26,4.16v-2.42l-7.26-4.16v2.42Zm18.06,10.4l11.6,6.66v-2.42l-11.6-6.66v2.42Zm-40.14-23.14l20.35,11.75v-2.42l-20.35-11.75v2.42Zm29.45-7.76l-5.54-3.18v2.42l5.54,3.18v-2.42Zm-1.51,15.86l-13.74-7.91v2.42l13.74,7.91v-2.42Zm-29.66-11.52l-10.38-6.11v2.42l10.38,6.11v-2.42Zm14.2,2.61l-14.3-8.25v2.42l14.3,8.25v-2.42Zm-16.03-9.25l-8.55-5.05v2.42l8.55,5.05v-2.42Z" fill="url(#linear-gradient-13)"/>
          <path d="m395.42,252.37c-.09,0-.18-.02-.26-.07l-1.08-.65c-.24-.14-.31-.45-.17-.69.14-.24.45-.31.69-.17l.81.49c.42-.28.82-.54,1.18-.79.23-.16.54-.1.7.13.16.23.1.54-.13.7-.44.3-.92.63-1.46.97-.08.05-.18.08-.27.08Zm-3.65-2.2c-.09,0-.18-.02-.26-.07l-2.57-1.55c-.24-.14-.31-.45-.17-.69.14-.24.45-.31.69-.17l2.57,1.55c.24.14.31.45.17.69-.09.16-.26.24-.43.24Zm7.5-.57c-.15,0-.29-.06-.39-.19-.17-.22-.14-.53.08-.7.8-.63,1.57-1.26,2.31-1.89.21-.18.53-.15.7.06.18.21.15.53-.06.7-.75.63-1.53,1.27-2.33,1.91-.09.07-.2.11-.31.11Zm-12.64-2.53c-.09,0-.18-.02-.26-.07l-2.57-1.55c-.24-.14-.31-.45-.17-.69.14-.24.45-.31.69-.17l2.57,1.55c.24.14.31.45.17.69-.09.16-.26.24-.43.24Zm17.22-1.34c-.14,0-.27-.06-.37-.17-.18-.2-.17-.52.04-.71.76-.68,1.49-1.35,2.19-2.02.2-.19.51-.18.71.02.19.2.18.52-.02.71-.71.68-1.45,1.36-2.21,2.05-.09.08-.21.13-.33.13Zm-22.37-1.75c-.09,0-.18-.02-.26-.07l-2.57-1.55c-.24-.14-.31-.45-.17-.69.14-.24.45-.31.69-.17l2.57,1.55c.24.14.31.45.17.69-.09.16-.26.24-.43.24Zm26.69-2.4c-.12,0-.25-.05-.35-.14-.2-.19-.2-.51-.01-.71.71-.73,1.38-1.46,2.02-2.18.18-.21.5-.23.71-.04.21.18.23.5.04.71-.65.74-1.34,1.47-2.05,2.21-.1.1-.23.15-.36.15Zm-31.83-.69c-.09,0-.18-.02-.26-.07l-2.57-1.55c-.24-.14-.31-.45-.17-.69.14-.24.45-.31.69-.17l2.57,1.55c.24.14.31.45.17.69-.09.16-.26.24-.43.24Zm-5.14-3.09c-.09,0-.18-.02-.26-.07l-2.57-1.55c-.24-.14-.31-.45-.17-.69s.45-.31.69-.17l2.57,1.55c.24.14.31.45.17.69-.09.16-.26.24-.43.24Zm40.95-.7c-.11,0-.22-.04-.31-.11-.21-.17-.25-.49-.08-.7.63-.78,1.24-1.58,1.8-2.36.16-.22.47-.28.7-.11.22.16.28.47.11.7-.58.8-1.19,1.61-1.83,2.41-.1.12-.24.19-.39.19Zm-46.09-2.39c-.09,0-.18-.02-.26-.07l-2.57-1.55c-.24-.14-.31-.45-.17-.69.14-.24.45-.31.69-.17l2.57,1.55c.24.14.31.45.17.69-.09.16-.26.24-.43.24Zm49.59-2.48c-.09,0-.18-.03-.27-.08-.23-.15-.3-.46-.15-.69.53-.84,1.04-1.7,1.51-2.55.13-.24.44-.33.68-.2.24.13.33.44.2.68-.48.87-1,1.75-1.54,2.61-.09.15-.26.23-.42.23Zm-54.73-.62c-.09,0-.18-.02-.26-.07l-2.57-1.55c-.24-.14-.31-.45-.17-.69s.45-.31.69-.17l2.57,1.55c.24.14.31.45.17.69-.09.16-.26.24-.43.24Zm-5.14-3.09c-.09,0-.18-.02-.26-.07l-2.57-1.55c-.24-.14-.31-.45-.17-.69.14-.24.45-.31.69-.17l2.57,1.55c.24.14.31.45.17.69-.09.16-.26.24-.43.24Zm62.75-1.54c-.07,0-.14-.01-.21-.05-.25-.12-.36-.41-.24-.66.41-.89.8-1.8,1.16-2.73.1-.26.39-.39.65-.29.26.1.38.39.29.65-.37.94-.76,1.88-1.19,2.79-.08.18-.27.29-.45.29Zm-67.9-1.55c-.09,0-.18-.02-.26-.07l-2.57-1.55c-.24-.14-.31-.45-.17-.69.14-.24.45-.31.69-.17l2.57,1.55c.24.14.31.45.17.69-.09.16-.26.24-.43.24Zm-5.14-3.09c-.09,0-.18-.02-.26-.07l-2.57-1.55c-.24-.14-.31-.45-.17-.69.14-.24.45-.31.69-.17l2.57,1.55c.24.14.31.45.17.69-.09.16-.26.24-.43.24Zm75.2-.95s-.1,0-.15-.02c-.26-.08-.41-.36-.33-.63.29-.93.55-1.89.79-2.86.07-.27.33-.43.6-.37.27.07.43.34.37.6-.24.99-.51,1.97-.81,2.92-.07.21-.26.35-.48.35Zm-80.34-2.14c-.09,0-.18-.02-.26-.07l-2.57-1.55c-.24-.14-.31-.45-.17-.69.14-.24.45-.31.69-.17l2.57,1.55c.24.14.31.45.17.69-.09.16-.26.24-.43.24Zm-5.14-3.09c-.09,0-.18-.02-.26-.07l-2.57-1.55c-.24-.14-.31-.45-.17-.69.14-.24.45-.31.69-.17l2.57,1.55c.24.14.31.45.17.69-.09.16-.26.24-.43.24Zm86.9-.59s-.06,0-.09,0c-.27-.05-.45-.31-.4-.58.17-.95.33-1.93.46-2.94.04-.27.29-.47.56-.43.27.04.47.29.43.56-.13,1.02-.29,2.03-.46,2.99-.04.24-.25.41-.49.41Zm-92.04-2.5c-.09,0-.18-.02-.26-.07l-2.57-1.55c-.24-.14-.31-.45-.17-.69.14-.24.45-.31.69-.17l2.57,1.55c.24.14.31.45.17.69-.09.16-.26.24-.43.24Zm-5.14-3.09c-.09,0-.18-.02-.26-.07l-2.57-1.55c-.24-.14-.31-.45-.17-.69.14-.24.45-.31.69-.17l2.57,1.55c.24.14.31.45.17.69-.09.16-.26.24-.43.24Zm97.96-.34s-.03,0-.04,0c-.26-.02-.46-.25-.46-.51l-2.33-1.34c-.24-.14-.32-.44-.18-.68.14-.24.44-.32.68-.18l2.6,1.5c.17.1.26.28.25.47l-.02.28c-.02.26-.24.46-.5.46Zm-103.11-2.75c-.09,0-.18-.02-.26-.07l-2.57-1.55c-.24-.14-.31-.45-.17-.69.14-.24.45-.31.69-.17l2.57,1.55c.24.14.31.45.17.69-.09.16-.26.24-.43.24Zm97.93-.53c-.08,0-.17-.02-.25-.07l-2.6-1.5c-.24-.14-.32-.44-.18-.68.14-.24.44-.32.68-.18l2.6,1.5c.24.14.32.44.18.68-.09.16-.26.25-.43.25Zm-99.28-2.91c-.14,0-.27-.06-.37-.16-.19-.21-.17-.52.04-.71.75-.68,1.48-1.35,2.19-2.03.2-.19.52-.18.71.02.19.2.18.52-.02.71-.72.68-1.45,1.37-2.21,2.05-.1.09-.22.13-.33.13Zm94.08-.08c-.09,0-.17-.02-.25-.07l-2.6-1.5c-.24-.14-.32-.44-.18-.68.14-.24.44-.32.68-.18l2.6,1.5c.24.14.32.44.18.68-.09.16-.26.25-.43.25Zm-5.2-2.99c-.08,0-.17-.02-.25-.07l-2.6-1.5c-.24-.14-.32-.44-.18-.68.14-.24.44-.32.68-.18l2.6,1.5c.24.14.32.44.18.68-.09.16-.26.25-.43.25Zm-84.54-1.07c-.13,0-.25-.05-.35-.14-.2-.19-.2-.51,0-.71.71-.72,1.4-1.44,2.06-2.16.19-.2.5-.21.71-.03.2.19.21.5.03.71-.67.73-1.37,1.45-2.08,2.18-.1.1-.23.15-.36.15Zm79.34-1.92c-.08,0-.17-.02-.25-.07l-2.6-1.5c-.24-.14-.32-.44-.18-.68.14-.24.44-.32.68-.18l2.6,1.5c.24.14.32.44.18.68-.09.16-.26.25-.43.25Zm-75.27-2.48c-.12,0-.23-.04-.33-.12-.21-.18-.23-.5-.05-.71.66-.76,1.29-1.53,1.9-2.29.17-.22.49-.25.7-.08.22.17.25.49.08.7-.62.77-1.26,1.55-1.93,2.32-.1.12-.24.17-.38.17Zm70.07-.51c-.08,0-.17-.02-.25-.07l-2.6-1.5c-.24-.14-.32-.44-.18-.68.14-.24.44-.32.68-.18l2.6,1.5c.24.14.32.44.18.68-.09.16-.26.25-.43.25Zm-5.2-2.99c-.08,0-.17-.02-.25-.07l-2.6-1.5c-.24-.14-.32-.44-.18-.68.14-.24.45-.32.68-.18l2.6,1.5c.24.14.32.44.18.68-.09.16-.26.25-.43.25Zm-61.14-1.18c-.1,0-.21-.03-.3-.1-.22-.16-.27-.48-.11-.7.6-.81,1.17-1.62,1.71-2.44.16-.23.47-.29.69-.14.23.15.29.46.14.69-.55.83-1.13,1.65-1.74,2.47-.1.13-.25.2-.4.2Zm55.94-1.82c-.08,0-.17-.02-.25-.07l-2.6-1.5c-.24-.14-.32-.44-.18-.68.14-.24.44-.32.68-.18l2.6,1.5c.24.14.32.44.18.68-.09.16-.26.25-.43.25Zm-5.2-2.99c-.08,0-.17-.02-.25-.07l-2.6-1.5c-.24-.14-.32-.44-.18-.68.14-.24.44-.32.68-.18l2.6,1.5c.24.14.32.44.18.68-.09.16-.26.25-.43.25Zm-47.4-.17c-.09,0-.18-.02-.26-.07-.24-.14-.31-.45-.17-.69.52-.85,1.02-1.72,1.49-2.58.13-.24.44-.33.68-.2.24.13.33.44.2.68-.48.87-.98,1.75-1.51,2.62-.09.15-.26.24-.43.24Zm42.2-2.82c-.08,0-.17-.02-.25-.07l-2.6-1.5c-.24-.14-.32-.44-.18-.68.14-.24.44-.32.68-.18l2.6,1.5c.24.14.32.44.18.68-.09.16-.26.25-.43.25Zm-39.33-2.44c-.07,0-.15-.02-.22-.05-.25-.12-.35-.42-.23-.67.43-.89.85-1.8,1.23-2.71.11-.25.4-.37.66-.26.25.11.37.4.26.66-.39.92-.81,1.85-1.25,2.75-.09.18-.26.28-.45.28Zm34.13-.55c-.08,0-.17-.02-.25-.07l-2.6-1.5c-.24-.14-.32-.44-.18-.68.14-.24.44-.32.68-.18l2.6,1.5c.24.14.32.44.18.68-.09.16-.26.25-.43.25Zm-5.2-2.99c-.08,0-.17-.02-.25-.07l-2.6-1.5c-.24-.14-.32-.44-.18-.68.14-.24.44-.32.68-.18l2.6,1.5c.24.14.32.44.18.68-.09.16-.26.25-.43.25Zm-26.57-1.97c-.06,0-.12,0-.17-.03-.26-.1-.39-.38-.29-.64.34-.92.67-1.86.97-2.81.08-.26.37-.41.63-.32.26.08.41.37.32.63-.31.96-.64,1.92-.99,2.86-.08.2-.27.33-.47.33Zm21.37-1.03c-.08,0-.17-.02-.25-.07l-2.6-1.5c-.24-.14-.32-.44-.18-.68.14-.24.44-.32.68-.18l2.6,1.5c.24.14.32.44.18.68-.09.16-.26.25-.43.25Zm-5.2-2.99c-.08,0-.17-.02-.25-.07l-2.6-1.5c-.24-.14-.32-.44-.18-.68.14-.24.44-.32.68-.18l2.6,1.5c.24.14.32.44.18.68-.09.16-.26.25-.43.25Zm-14.35-1.69s-.09,0-.13-.02c-.27-.07-.42-.35-.35-.61.26-.96.5-1.92.72-2.89.06-.27.33-.44.6-.38.27.06.44.33.38.6-.22.98-.46,1.96-.73,2.93-.06.22-.26.37-.48.37Zm9.15-1.3c-.08,0-.17-.02-.25-.07l-2.6-1.5c-.24-.14-.32-.44-.18-.68.14-.24.44-.32.68-.18l2.6,1.5c.24.14.32.44.18.68-.09.16-.26.25-.43.25Zm-5.2-2.99c-.08,0-.17-.02-.25-.07l-2.6-1.5c-.24-.14-.32-.44-.18-.68.14-.24.44-.32.68-.18l2.6,1.5c.24.14.32.44.18.68-.09.16-.26.25-.43.25Z" fill="#b086cc"/>
          <path d="m280.53,253.54c-.09,0-.17-.02-.25-.07l-2.6-1.5c-.24-.14-.32-.44-.18-.68.14-.24.45-.32.68-.18l2.35,1.36,1.2-.69c.24-.14.54-.06.68.18.14.24.06.54-.18.68l-1.45.84c-.08.04-.16.07-.25.07Zm4.05-2.34c-.17,0-.34-.09-.43-.25-.14-.24-.06-.55.18-.68l2.6-1.5c.24-.14.54-.06.68.18.14.24.06.54-.18.68l-2.6,1.5c-.08.05-.17.07-.25.07Zm-9.25-.66c-.08,0-.17-.02-.25-.07l-2.6-1.5c-.24-.14-.32-.44-.18-.68.14-.24.44-.32.68-.18l2.6,1.5c.24.14.32.44.18.68-.09.16-.26.25-.43.25Zm14.44-2.34c-.17,0-.34-.09-.43-.25-.14-.24-.06-.55.18-.68l2.6-1.5c.24-.14.54-.06.68.18.14.24.06.54-.18.68l-2.6,1.5c-.08.05-.17.07-.25.07Zm-19.64-.66c-.08,0-.17-.02-.25-.07l-2.6-1.5c-.24-.14-.32-.44-.18-.68.14-.24.44-.32.68-.18l2.6,1.5c.24.14.32.44.18.68-.09.16-.26.25-.43.25Zm24.83-2.34c-.17,0-.34-.09-.43-.25-.14-.24-.06-.55.18-.68l2.6-1.5c.24-.14.55-.06.68.18.14.24.06.54-.18.68l-2.6,1.5c-.08.05-.17.07-.25.07Zm-30.03-.66c-.08,0-.17-.02-.25-.07l-2.6-1.5c-.24-.14-.32-.44-.18-.68.14-.24.44-.32.68-.18l2.6,1.5c.24.14.32.44.18.68-.09.16-.26.25-.43.25Zm35.23-2.34c-.17,0-.34-.09-.43-.25-.14-.24-.06-.55.18-.68l2.6-1.5c.24-.14.54-.06.68.18.14.24.06.54-.18.68l-2.6,1.5c-.08.05-.17.07-.25.07Zm-40.42-.66c-.08,0-.17-.02-.25-.07l-1.73-1c-.15-.09-.25-.25-.25-.43s.1-.34.25-.43l.87-.5c.24-.14.54-.06.68.18.14.24.06.54-.18.68l-.12.07.98.57c.24.14.32.44.18.68-.09.16-.26.25-.43.25Zm40.7-2.34c-.08,0-.17-.02-.25-.07l-2.6-1.5c-.24-.14-.32-.44-.18-.68.14-.24.44-.32.68-.18l2.6,1.5c.24.14.32.44.18.68-.09.16-.26.25-.43.25Zm-38.97-.66c-.17,0-.34-.09-.43-.25-.14-.24-.06-.55.18-.68l2.6-1.5c.24-.14.54-.06.68.18.14.24.06.54-.18.68l-2.6,1.5c-.08.05-.16.07-.25.07Zm33.78-2.34c-.08,0-.17-.02-.25-.07l-2.6-1.5c-.24-.14-.32-.44-.18-.68.14-.24.44-.32.68-.18l2.6,1.5c.24.14.32.44.18.68-.09.16-.26.25-.43.25Zm-28.58-.66c-.17,0-.34-.09-.43-.25-.14-.24-.06-.55.18-.68l2.6-1.5c.24-.14.55-.06.68.18.14.24.06.54-.18.68l-2.6,1.5c-.08.05-.16.07-.25.07Zm23.38-2.34c-.08,0-.17-.02-.25-.07l-2.6-1.5c-.24-.14-.32-.44-.18-.68.14-.24.44-.32.68-.18l2.6,1.5c.24.14.32.44.18.68-.09.16-.26.25-.43.25Zm-18.19-.66c-.17,0-.34-.09-.43-.25-.14-.24-.06-.55.18-.68l2.6-1.5c.24-.14.54-.06.68.18.14.24.06.54-.18.68l-2.6,1.5c-.08.05-.16.07-.25.07Zm12.99-2.34c-.08,0-.17-.02-.25-.07l-2.6-1.5c-.24-.14-.32-.44-.18-.68.14-.24.44-.32.68-.18l2.6,1.5c.24.14.32.44.18.68-.09.16-.26.25-.43.25Zm-7.79-.66c-.17,0-.34-.09-.43-.25-.14-.24-.06-.55.18-.68l2.6-1.5c.24-.14.54-.06.68.18.14.24.06.54-.18.68l-2.6,1.5c-.08.05-.16.07-.25.07Z" fill="#b086cc"/>
          <path d="m313.93,299.2c-.08,0-.17-.02-.25-.07l-2.6-1.5c-.24-.14-.32-.44-.18-.68.14-.24.44-.32.68-.18l2.6,1.5c.24.14.32.44.18.68-.09.16-.26.25-.43.25Zm2.33-1.33c-.17,0-.34-.09-.43-.25-.14-.24-.05-.54.19-.68l2.6-1.49c.24-.14.54-.06.68.19.14.24.05.54-.19.68l-2.6,1.49c-.08.04-.16.07-.25.07Zm-7.52-1.67c-.09,0-.17-.02-.25-.07l-2.6-1.5c-.24-.14-.32-.44-.18-.68.14-.24.44-.32.68-.18l2.6,1.5c.24.14.32.44.18.68-.09.16-.26.25-.43.25Zm12.73-1.31c-.17,0-.34-.09-.43-.25-.14-.24-.05-.54.19-.68l2.6-1.49c.24-.13.54-.05.68.19.14.24.05.54-.19.68l-2.6,1.49c-.08.04-.16.07-.25.07Zm-17.93-1.69c-.08,0-.17-.02-.25-.07l-2.6-1.5c-.24-.14-.32-.44-.18-.68.14-.24.44-.32.68-.18l2.6,1.5c.24.14.32.44.18.68-.09.16-.26.25-.43.25Zm23.14-1.29c-.17,0-.34-.09-.43-.25-.14-.24-.05-.54.19-.68l2.6-1.49c.24-.13.54-.05.68.19.14.24.05.54-.19.68l-2.6,1.49c-.08.04-.16.07-.25.07Zm-28.34-1.71c-.08,0-.17-.02-.25-.07l-2.6-1.5c-.24-.14-.32-.44-.18-.68.14-.24.44-.32.68-.18l2.6,1.5c.24.14.32.44.18.68-.09.16-.26.25-.43.25Zm32.63-1.26c-.08,0-.17-.02-.25-.07l-2.6-1.5c-.24-.14-.32-.44-.18-.68.14-.24.44-.32.68-.18l2.6,1.5c.24.14.32.44.18.68-.09.16-.26.25-.43.25Zm-37.83-1.74c-.08,0-.17-.02-.25-.07l-2.6-1.5c-.24-.14-.32-.44-.18-.68.14-.24.44-.32.68-.18l2.6,1.5c.24.14.32.44.18.68-.09.16-.26.25-.43.25Zm32.63-1.26c-.08,0-.17-.02-.25-.07l-2.6-1.5c-.24-.14-.32-.44-.18-.68.14-.24.44-.32.68-.18l2.6,1.5c.24.14.32.44.18.68-.09.16-.26.25-.43.25Zm-37.83-1.73c-.08,0-.17-.02-.25-.07l-2.6-1.5c-.24-.14-.32-.44-.18-.68.14-.24.44-.32.68-.18l2.6,1.5c.24.14.32.44.18.68-.09.16-.26.25-.43.25Zm32.63-1.26c-.08,0-.17-.02-.25-.07l-2.6-1.5c-.24-.14-.32-.44-.18-.68.14-.24.44-.32.68-.18l2.6,1.5c.24.14.32.44.18.68-.09.16-.26.25-.43.25Zm-37.83-1.74c-.08,0-.17-.02-.25-.07l-2.6-1.5c-.24-.14-.32-.44-.18-.68.14-.24.44-.32.68-.18l2.6,1.5c.24.14.32.44.18.68-.09.16-.26.25-.43.25Zm32.63-1.26c-.08,0-.17-.02-.25-.07l-2.6-1.5c-.24-.14-.32-.44-.18-.68.14-.24.44-.32.68-.18l2.6,1.5c.24.14.32.44.18.68-.09.16-.26.25-.43.25Zm-37.83-1.73c-.08,0-.17-.02-.25-.07l-2.6-1.5c-.24-.14-.32-.44-.18-.68.14-.24.44-.32.68-.18l2.6,1.5c.24.14.32.44.18.68-.09.16-.26.25-.43.25Zm32.63-1.26c-.08,0-.17-.02-.25-.07l-2.6-1.5c-.24-.14-.32-.44-.18-.68.14-.24.44-.32.68-.18l2.6,1.5c.24.14.32.44.18.68-.09.16-.26.25-.43.25Zm-37.83-1.74c-.09,0-.17-.02-.25-.07l-2.6-1.5c-.24-.14-.32-.44-.18-.68.14-.24.44-.32.68-.18l2.6,1.5c.24.14.32.44.18.68-.09.16-.26.25-.43.25Zm32.63-1.26c-.08,0-.17-.02-.25-.07l-2.6-1.5c-.24-.14-.32-.44-.18-.68.14-.24.44-.32.68-.18l2.6,1.5c.24.14.32.44.18.68-.09.16-.26.25-.43.25Zm-37.83-1.73c-.08,0-.17-.02-.25-.07l-2.6-1.5c-.24-.14-.32-.44-.18-.68.14-.24.44-.32.68-.18l2.6,1.5c.24.14.32.44.18.68-.09.16-.26.25-.43.25Zm32.63-1.26c-.08,0-.17-.02-.25-.07l-2.6-1.5c-.24-.14-.32-.44-.18-.68.14-.24.45-.32.68-.18l2.6,1.5c.24.14.32.44.18.68-.09.16-.26.25-.43.25Zm-37.83-1.74c-.08,0-.17-.02-.25-.07l-2.6-1.5c-.24-.14-.32-.44-.18-.68.14-.24.45-.32.68-.18l2.6,1.5c.24.14.32.44.18.68-.09.16-.26.25-.43.25Zm32.63-1.26c-.08,0-.17-.02-.25-.07l-2.6-1.5c-.24-.14-.32-.44-.18-.68.14-.24.44-.32.68-.18l2.6,1.5c.24.14.32.44.18.68-.09.16-.26.25-.43.25Zm-37.83-1.73c-.08,0-.17-.02-.25-.07l-2.6-1.5c-.24-.14-.32-.44-.18-.68.14-.24.44-.32.68-.18l2.6,1.5c.24.14.32.44.18.68-.09.16-.26.25-.43.25Zm32.63-1.26c-.08,0-.17-.02-.25-.07l-2.6-1.5c-.24-.14-.32-.44-.18-.68.14-.24.44-.32.68-.18l2.6,1.5c.24.14.32.44.18.68-.09.16-.26.25-.43.25Zm-37.83-1.74c-.08,0-.17-.02-.25-.07l-2.6-1.5c-.24-.14-.32-.44-.18-.68.14-.24.44-.32.68-.18l2.6,1.5c.24.14.32.44.18.68-.09.16-.26.25-.43.25Zm32.63-1.26c-.08,0-.17-.02-.25-.07l-2.6-1.5c-.24-.14-.32-.44-.18-.68.14-.24.44-.32.68-.18l2.6,1.5c.24.14.32.44.18.68-.09.16-.26.25-.43.25Zm-37.83-1.73c-.08,0-.17-.02-.25-.07l-2.6-1.5c-.24-.14-.32-.44-.18-.68.14-.24.44-.32.68-.18l2.6,1.5c.24.14.32.44.18.68-.09.16-.26.25-.43.25Zm32.63-1.26c-.08,0-.17-.02-.25-.07l-2.6-1.5c-.24-.14-.32-.44-.18-.68.14-.24.44-.32.68-.18l2.6,1.5c.24.14.32.44.18.68-.09.16-.26.25-.43.25Zm-37.83-1.74c-.08,0-.17-.02-.25-.07l-2.6-1.5c-.24-.14-.32-.44-.18-.68.14-.24.44-.32.68-.18l2.6,1.5c.24.14.32.44.18.68-.09.16-.26.25-.43.25Zm32.63-1.26c-.08,0-.17-.02-.25-.07l-2.6-1.5c-.24-.14-.32-.44-.18-.68.14-.24.44-.32.68-.18l2.6,1.5c.24.14.32.44.18.68-.09.16-.26.25-.43.25Zm-37.83-1.73c-.09,0-.17-.02-.25-.07l-.59-.34c-.16-.09-.25-.25-.25-.43s.1-.34.25-.43l2.01-1.15c.24-.13.54-.05.68.19.14.24.05.54-.19.68l-1.28.73c.13.16.16.39.05.57-.09.16-.26.25-.43.25Zm32.63-1.26c-.08,0-.17-.02-.25-.07l-2.6-1.5c-.24-.14-.32-.44-.18-.68.14-.24.44-.32.68-.18l2.6,1.5c.24.14.32.44.18.68-.09.16-.26.25-.43.25Zm-28.61-1.71c-.17,0-.34-.09-.43-.25-.14-.24-.05-.54.19-.68l2.61-1.49c.24-.13.54-.05.68.19.14.24.05.54-.19.68l-2.61,1.49c-.08.04-.16.07-.25.07Zm23.42-1.29c-.08,0-.17-.02-.25-.07l-2.6-1.5c-.24-.14-.32-.44-.18-.68.14-.24.44-.32.68-.18l2.6,1.5c.24.14.32.44.18.68-.09.16-.26.25-.43.25Zm-18.21-1.69c-.17,0-.34-.09-.43-.25-.14-.24-.05-.54.19-.68l2.6-1.49c.24-.14.54-.05.68.19.14.24.05.54-.19.68l-2.6,1.49c-.08.04-.16.07-.25.07Zm13.01-1.31c-.08,0-.17-.02-.25-.07l-2.6-1.5c-.24-.14-.32-.44-.18-.68.14-.24.44-.32.68-.18l2.6,1.5c.24.14.32.44.18.68-.09.16-.26.25-.43.25Zm-7.8-1.67c-.17,0-.34-.09-.43-.25-.14-.24-.05-.54.19-.68l2.47-1.41c.15-.09.34-.09.5,0l.14.08c.24.14.32.44.18.68-.11.2-.34.28-.55.24l-2.24,1.28c-.08.04-.16.07-.25.07Z" fill="#b086cc"/>
          <path d="m309.03,270.2c-.09,0-.17-.02-.25-.07l-2.6-1.5c-.24-.14-.32-.44-.18-.68.14-.24.45-.32.68-.18l2.35,1.36,1.2-.69c.24-.14.54-.06.68.18.14.24.06.54-.18.68l-1.45.84c-.08.04-.16.07-.25.07Zm4.05-2.34c-.17,0-.34-.09-.43-.25-.14-.24-.06-.54.18-.68l2.6-1.5c.24-.14.54-.06.68.18.14.24.06.54-.18.68l-2.6,1.5c-.08.05-.17.07-.25.07Zm-9.25-.66c-.08,0-.17-.02-.25-.07l-2.6-1.5c-.24-.14-.32-.44-.18-.68.14-.24.44-.32.68-.18l2.6,1.5c.24.14.32.44.18.68-.09.16-.26.25-.43.25Zm14.44-2.34c-.17,0-.34-.09-.43-.25-.14-.24-.06-.54.18-.68l2.6-1.5c.24-.14.54-.06.68.18.14.24.06.54-.18.68l-2.6,1.5c-.08.05-.17.07-.25.07Zm-19.64-.66c-.08,0-.17-.02-.25-.07l-2.6-1.5c-.24-.14-.32-.44-.18-.68.14-.24.44-.32.68-.18l2.6,1.5c.24.14.32.44.18.68-.09.16-.26.25-.43.25Zm24.83-2.34c-.17,0-.34-.09-.43-.25-.14-.24-.06-.54.18-.68l2.6-1.5c.24-.14.55-.06.68.18.14.24.06.54-.18.68l-2.6,1.5c-.08.05-.17.07-.25.07Zm-30.03-.66c-.08,0-.17-.02-.25-.07l-2.6-1.5c-.24-.14-.32-.44-.18-.68.14-.24.45-.32.68-.18l2.6,1.5c.24.14.32.44.18.68-.09.16-.26.25-.43.25Zm35.23-2.34c-.17,0-.34-.09-.43-.25-.14-.24-.06-.54.18-.68l2.6-1.5c.24-.14.54-.06.68.18.14.24.06.54-.18.68l-2.6,1.5c-.08.05-.17.07-.25.07Zm-40.42-.66c-.08,0-.17-.02-.25-.07l-1.73-1c-.15-.09-.25-.25-.25-.43s.1-.34.25-.43l.87-.5c.24-.14.54-.06.68.18.14.24.06.54-.18.68l-.12.07.98.57c.24.14.32.44.18.68-.09.16-.26.25-.43.25Zm40.7-2.34c-.08,0-.17-.02-.25-.07l-2.6-1.5c-.24-.14-.32-.44-.18-.68.14-.24.45-.32.68-.18l2.6,1.5c.24.14.32.44.18.68-.09.16-.26.25-.43.25Zm-38.97-.66c-.17,0-.34-.09-.43-.25-.14-.24-.06-.55.18-.68l2.6-1.5c.24-.14.54-.06.68.18.14.24.06.54-.18.68l-2.6,1.5c-.08.05-.16.07-.25.07Zm33.78-2.34c-.08,0-.17-.02-.25-.07l-2.6-1.5c-.24-.14-.32-.44-.18-.68.14-.24.44-.32.68-.18l2.6,1.5c.24.14.32.44.18.68-.09.16-.26.25-.43.25Zm-28.58-.66c-.17,0-.34-.09-.43-.25-.14-.24-.06-.55.18-.68l2.6-1.5c.24-.14.54-.06.68.18.14.24.06.54-.18.68l-2.6,1.5c-.08.05-.16.07-.25.07Zm23.38-2.34c-.08,0-.17-.02-.25-.07l-2.6-1.5c-.24-.14-.32-.44-.18-.68.14-.24.44-.32.68-.18l2.6,1.5c.24.14.32.44.18.68-.09.16-.26.25-.43.25Zm-18.19-.66c-.17,0-.34-.09-.43-.25-.14-.24-.06-.55.18-.68l2.6-1.5c.24-.14.54-.06.68.18.14.24.06.54-.18.68l-2.6,1.5c-.08.05-.16.07-.25.07Zm12.99-2.34c-.08,0-.17-.02-.25-.07l-2.6-1.5c-.24-.14-.32-.44-.18-.68.14-.24.44-.32.68-.18l2.6,1.5c.24.14.32.44.18.68-.09.16-.26.25-.43.25Zm-7.79-.66c-.17,0-.34-.09-.43-.25-.14-.24-.06-.55.18-.68l2.6-1.5c.24-.14.54-.06.68.18.14.24.06.54-.18.68l-2.6,1.5c-.08.05-.16.07-.25.07Z" fill="#b086cc"/>
          <path d="m336.69,286.2c-.09,0-.17-.02-.25-.07l-2.6-1.5c-.24-.14-.32-.44-.18-.68.14-.24.44-.32.68-.18l2.35,1.36,1.2-.69c.24-.14.55-.06.68.18.14.24.06.54-.18.68l-1.45.84c-.08.04-.16.07-.25.07Zm4.05-2.34c-.17,0-.34-.09-.43-.25-.14-.24-.06-.54.18-.68l2.6-1.5c.24-.14.54-.06.68.18.14.24.06.54-.18.68l-2.6,1.5c-.08.05-.16.07-.25.07Zm-9.25-.66c-.08,0-.17-.02-.25-.07l-2.6-1.5c-.24-.14-.32-.44-.18-.68.14-.24.44-.32.68-.18l2.6,1.5c.24.14.32.44.18.68-.09.16-.26.25-.43.25Zm14.44-2.34c-.17,0-.34-.09-.43-.25-.14-.24-.06-.54.18-.68l2.6-1.5c.24-.14.55-.06.68.18.14.24.06.54-.18.68l-2.6,1.5c-.08.05-.16.07-.25.07Zm-19.64-.66c-.08,0-.17-.02-.25-.07l-2.6-1.5c-.24-.14-.32-.44-.18-.68.14-.24.45-.32.68-.18l2.6,1.5c.24.14.32.44.18.68-.09.16-.26.25-.43.25Zm24.83-2.34c-.17,0-.34-.09-.43-.25-.14-.24-.06-.54.18-.68l2.6-1.5c.24-.14.54-.06.68.18.14.24.06.54-.18.68l-2.6,1.5c-.08.05-.17.07-.25.07Zm-30.03-.66c-.09,0-.17-.02-.25-.07l-2.6-1.5c-.24-.14-.32-.44-.18-.68.14-.24.44-.32.68-.18l2.6,1.5c.24.14.32.44.18.68-.09.16-.26.25-.43.25Zm35.23-2.34c-.17,0-.34-.09-.43-.25-.14-.24-.06-.54.18-.68l2.6-1.5c.24-.14.54-.06.68.18.14.24.06.54-.18.68l-2.6,1.5c-.08.05-.17.07-.25.07Zm-40.42-.66c-.08,0-.17-.02-.25-.07l-1.73-1c-.15-.09-.25-.25-.25-.43s.1-.34.25-.43l.87-.5c.24-.14.54-.06.68.18.14.24.06.54-.18.68l-.12.07.98.57c.24.14.32.44.18.68-.09.16-.26.25-.43.25Zm40.7-2.34c-.08,0-.17-.02-.25-.07l-2.6-1.5c-.24-.14-.32-.44-.18-.68.14-.24.44-.32.68-.18l2.6,1.5c.24.14.32.44.18.68-.09.16-.26.25-.43.25Zm-38.97-.66c-.17,0-.34-.09-.43-.25-.14-.24-.06-.55.18-.68l2.6-1.5c.24-.14.54-.06.68.18.14.24.06.54-.18.68l-2.6,1.5c-.08.05-.16.07-.25.07Zm33.78-2.34c-.08,0-.17-.02-.25-.07l-2.6-1.5c-.24-.14-.32-.44-.18-.68.14-.24.44-.32.68-.18l2.6,1.5c.24.14.32.44.18.68-.09.16-.26.25-.43.25Zm-28.58-.66c-.17,0-.34-.09-.43-.25-.14-.24-.06-.55.18-.68l2.6-1.5c.24-.14.54-.06.68.18.14.24.06.54-.18.68l-2.6,1.5c-.08.05-.16.07-.25.07Zm23.38-2.34c-.08,0-.17-.02-.25-.07l-2.6-1.5c-.24-.14-.32-.44-.18-.68.14-.24.44-.32.68-.18l2.6,1.5c.24.14.32.44.18.68-.09.16-.26.25-.43.25Zm-18.19-.66c-.17,0-.34-.09-.43-.25-.14-.24-.06-.55.18-.68l2.6-1.5c.24-.14.54-.06.68.18.14.24.06.54-.18.68l-2.6,1.5c-.08.05-.16.07-.25.07Zm12.99-2.34c-.09,0-.17-.02-.25-.07l-2.6-1.5c-.24-.14-.32-.44-.18-.68.14-.24.44-.32.68-.18l2.6,1.5c.24.14.32.44.18.68-.09.16-.26.25-.43.25Zm-7.79-.66c-.17,0-.34-.09-.43-.25-.14-.24-.06-.55.18-.68l2.6-1.5c.24-.14.55-.06.68.18.14.24.06.54-.18.68l-2.6,1.5c-.08.05-.17.07-.25.07Z" fill="#b086cc"/>
          <g>
            <path d="m383.32,177.7l-2.12.05c-.18,0-.4-.3-.36-.51l.4-2.47c.01-.08-.01-.19-.07-.29l-1.71-2.9c-.15-.25-.07-.49.14-.41l2.37.97c.08.03.15.02.19-.05l1.06-1.85c.09-.16.35,0,.45.26l1.06,3.07c.04.11.11.2.19.26l2.37,1.76c.2.15.29.49.14.57l-1.71.93c-.06.03-.09.11-.07.21l.4,2.94c.03.25-.18.31-.36.09l-2.12-2.5c-.07-.09-.16-.14-.23-.13Z" fill="url(#New_Gradient_Swatch_copy_8)"/>
            <path d="m391.61,182.46l-2.12.05c-.18,0-.4-.3-.36-.51l.4-2.47c.01-.08-.01-.19-.07-.29l-1.71-2.9c-.15-.25-.07-.49.14-.41l2.37.97c.08.03.15.02.19-.05l1.06-1.85c.09-.16.35,0,.45.26l1.06,3.07c.04.11.11.2.19.26l2.37,1.76c.2.15.29.49.14.57l-1.71.93c-.06.03-.09.11-.07.21l.4,2.94c.03.25-.18.31-.36.09l-2.12-2.5c-.07-.09-.16-.14-.23-.13Z" fill="url(#New_Gradient_Swatch_copy_8-2)"/>
            <path d="m399.9,187.22l-2.12.05c-.18,0-.4-.3-.36-.51l.4-2.47c.01-.08-.01-.19-.07-.29l-1.71-2.9c-.15-.25-.07-.49.14-.41l2.37.97c.08.03.15.02.19-.05l1.06-1.85c.09-.16.35,0,.45.26l1.06,3.07c.04.11.11.2.19.26l2.37,1.76c.2.15.29.49.14.57l-1.71.93c-.06.03-.09.11-.07.21l.4,2.94c.03.25-.18.31-.36.09l-2.12-2.5c-.07-.09-.16-.14-.23-.13Z" fill="url(#New_Gradient_Swatch_copy_8-3)"/>
            <path d="m408.19,191.99l-2.12.05c-.18,0-.4-.3-.36-.51l.4-2.47c.01-.08-.01-.19-.07-.29l-1.71-2.9c-.15-.25-.07-.49.14-.41l2.37.97c.08.03.15.02.19-.05l1.06-1.85c.09-.16.35,0,.45.26l1.06,3.07c.04.11.11.2.19.26l2.37,1.76c.2.15.29.49.14.57l-1.71.93c-.06.03-.09.11-.07.21l.4,2.94c.03.25-.18.31-.36.09l-2.12-2.5c-.07-.09-.16-.14-.23-.13Z" fill="url(#New_Gradient_Swatch_copy_8-4)"/>
            <path d="m416.47,196.75l-2.12.05c-.18,0-.4-.3-.36-.51l.4-2.47c.01-.08-.01-.19-.07-.29l-1.71-2.9c-.15-.25-.07-.49.14-.41l2.37.97c.08.03.15.02.19-.05l1.06-1.85c.09-.16.35,0,.45.26l1.06,3.07c.04.11.11.2.19.26l2.37,1.76c.2.15.29.49.14.57l-1.71.93c-.06.03-.09.11-.07.21l.4,2.94c.03.25-.18.31-.36.09l-2.12-2.5c-.07-.09-.16-.14-.23-.13Z" fill="url(#New_Gradient_Swatch_copy_8-5)"/>
          </g>
          <path d="m362.38,210.79l13.8,1.67-6.4-12.8c-1.92,3.76-4.35,7.46-7.4,11.13Z" fill="#b086cc"/>
          <path d="m325.49,245.82l2.51-1.45-5.06-2.92-2.51,1.45,5.06,2.92Zm21.08,3.05l-28.36-16.37-2.51,1.45,28.36,16.37,2.51-1.45Zm-9.77-8.96l2.51-1.45-9.03-5.21-2.51,1.45,9.03,5.21Zm13.86-1.12l-20.32-11.73-2.51,1.45,20.32,11.73,2.51-1.45Zm-52.71-8.88l20.32,11.73,2.51-1.45-20.32-11.73-2.51,1.45Zm7.34-8.2l20.32,11.73,2.51-1.45-20.32-11.73-2.51,1.45Zm61.07,38.57l-17.61-10.17-2.51,1.45,17.61,10.17,2.51-1.45Zm10.1-12.82l-28.36-16.37-2.51,1.45,28.36,16.37,2.51-1.45Zm-30.52-17.62l-20.32-11.73-2.51,1.45,20.32,11.73,2.51-1.45Zm6.9,10.2l-2.51,1.45,5.06,2.92,2.51-1.45-5.06-2.92Zm-.17,18.55l-22.49-12.98-2.51,1.45,22.49,12.98,2.51-1.45Zm-13.69-17.44l17.16,9.91,2.51-1.45-17.16-9.91-2.51,1.45Zm19.33,11.16l18.36,10.6,2.51-1.45-18.36-10.6-2.51,1.45Zm7.71,10.67l5.27,3.04,2.51-1.45-5.27-3.04-2.51,1.45Zm-67.71-35.78l-9-5.2-2.51,1.45,9,5.2,2.51-1.45Zm80.33,21.51l-2.51,1.45,11.32,6.53,2.51-1.45-11.32-6.53Zm3.92,8.48l-22.49-12.98-2.51,1.45,22.49,12.98,2.51-1.45Zm-59.09-40.34l-12.61-7.28-2.51,1.45,12.61,7.28,2.51-1.45Zm-7.39,14.38l-21.37-12.34-2.51,1.45,21.37,12.34,2.51-1.45Zm-10.42-12.23l-5.57-3.22-2.51,1.45,5.57,3.22,2.51-1.45Zm22.54,6.8l-22.73-13.12-2.51,1.45,22.73,13.12,2.51-1.45Z" fill="url(#linear-gradient-14)"/>
          <path d="m302.55,312.84c-.09,0-.17-.02-.25-.07l-.85-.5c-.24-.14-.32-.45-.18-.68.14-.24.45-.32.68-.18l.6.35c.81-.46,1.54-.94,2.22-1.44.22-.16.53-.12.7.11.16.22.12.54-.11.7-.79.58-1.63,1.12-2.57,1.65-.08.04-.16.06-.25.06Zm-3.44-2.01c-.09,0-.17-.02-.25-.07l-2.59-1.51c-.24-.14-.32-.45-.18-.68.14-.24.45-.32.68-.18l2.59,1.51c.24.14.32.45.18.68-.09.16-.26.25-.43.25Zm8.21-1.59c-.12,0-.24-.04-.34-.13-.2-.19-.22-.5-.03-.71.64-.7,1.3-1.56,1.86-2.3.17-.22.48-.26.7-.1.22.17.26.48.1.7-.57.76-1.25,1.63-1.92,2.37-.1.11-.23.16-.37.16Zm-13.39-1.44c-.09,0-.17-.02-.25-.07l-2.59-1.51c-.24-.14-.32-.45-.18-.68.14-.24.45-.32.68-.18l2.59,1.51c.24.14.32.45.18.68-.09.16-.26.25-.43.25Zm-5.18-3.02c-.09,0-.17-.02-.25-.07l-2.59-1.51c-.24-.14-.32-.45-.18-.68.14-.24.45-.32.68-.18l2.59,1.51c.24.14.32.45.18.68-.09.16-.26.25-.43.25Zm22.23-.27c-.08,0-.17-.02-.25-.07l-2.61-1.49c-.24-.14-.32-.44-.19-.68.14-.24.44-.32.68-.19l2.61,1.49c.24.14.32.44.19.68-.09.16-.26.25-.43.25Zm-27.41-2.76c-.09,0-.17-.02-.25-.07l-2.59-1.51c-.24-.14-.32-.45-.18-.68.14-.24.45-.32.68-.18l2.59,1.51c.24.14.32.45.18.68-.09.16-.26.25-.43.25Zm22.2-.22c-.08,0-.17-.02-.25-.07l-2.61-1.49c-.24-.14-.32-.44-.19-.68.14-.24.44-.32.68-.19l2.61,1.49c.24.14.32.44.19.68-.09.16-.26.25-.43.25Zm-27.38-2.81c-.09,0-.17-.02-.25-.07l-2.59-1.51c-.24-.14-.32-.45-.18-.68.14-.24.45-.32.68-.18l2.59,1.51c.24.14.32.45.18.68-.09.16-.26.25-.43.25Zm22.17-.17c-.08,0-.17-.02-.25-.07l-2.61-1.49c-.24-.14-.32-.44-.19-.68.14-.24.45-.32.68-.19l2.61,1.49c.24.14.32.44.19.68-.09.16-.26.25-.43.25Zm-27.35-2.86c-.09,0-.17-.02-.25-.07l-2.59-1.51c-.24-.14-.32-.45-.18-.68.14-.24.45-.32.68-.18l2.59,1.51c.24.14.32.45.18.68-.09.16-.26.25-.43.25Zm22.14-.11c-.08,0-.17-.02-.25-.07l-2.61-1.49c-.24-.14-.32-.44-.19-.68.14-.24.45-.32.68-.19l2.61,1.49c.24.14.32.44.19.68-.09.16-.26.25-.43.25Zm-27.32-2.91c-.09,0-.17-.02-.25-.07l-2.59-1.51c-.24-.14-.32-.45-.18-.68.14-.24.45-.32.68-.18l2.59,1.51c.24.14.32.45.18.68-.09.16-.26.25-.43.25Zm22.11-.06c-.08,0-.17-.02-.25-.07l-2.61-1.49c-.24-.14-.32-.44-.19-.68.14-.24.45-.32.68-.19l2.61,1.49c.24.14.32.44.19.68-.09.16-.26.25-.43.25Zm-27.29-2.96c-.09,0-.17-.02-.25-.07l-2.3-1.34c-.15-.09-.25-.25-.25-.43,0-.18.09-.34.24-.43l.29-.17c.24-.14.54-.07.69.17.06.1.08.2.07.31l1.77,1.03c.24.14.32.45.18.68-.09.16-.26.25-.43.25Zm22.08-.01c-.08,0-.17-.02-.25-.07l-2.61-1.49c-.24-.14-.32-.44-.19-.68.14-.24.44-.32.68-.19l2.61,1.49c.24.14.32.44.19.68-.09.16-.26.25-.43.25Zm-5.21-2.97c-.08,0-.17-.02-.25-.07l-2.61-1.49c-.24-.14-.32-.44-.19-.68.14-.24.44-.32.68-.19l2.61,1.49c.24.14.32.44.19.68-.09.16-.26.25-.43.25Zm-16.42-.24c-.15,0-.29-.06-.39-.19-.17-.22-.14-.53.08-.7.14-.11.28-.23.42-.34.51-.43,1.02-.97,1.63-1.7.18-.21.49-.24.7-.06.21.18.24.49.06.7-.64.77-1.2,1.35-1.75,1.82-.15.12-.29.25-.44.36-.09.07-.2.11-.31.11Zm11.21-2.73c-.08,0-.17-.02-.25-.07l-2.61-1.49c-.24-.14-.32-.44-.19-.68.14-.24.44-.32.68-.19l2.61,1.49c.24.14.32.44.19.68-.09.16-.26.25-.43.25Zm-7.25-1.75c-.1,0-.21-.03-.3-.1-.22-.16-.27-.48-.11-.7l.3-.4c.33-.44.64-.85.95-1.28.15-.2.43-.25.65-.13l.79.45c.24.14.32.44.19.68-.14.24-.44.32-.68.19l-.41-.23c-.22.3-.44.59-.65.88l-.33.44c-.1.13-.25.2-.4.2Z" fill="#b086cc"/>
        </g>
        <g>
          <g>
            <path d="m474.99,241.18c0,4.71-1.63,8.05-4.27,9.67-.08.05-4.52,2.8-4.6,2.85-2.75,1.54-.99-1.95-5.17-4.36-8.41-4.85-15.23-16.61-15.23-26.26,0-4.77-4.41-4.81-1.71-6.4.08-.04,5.04-2.88,5.12-2.92,2.74-1.49,6.49-1.21,10.63,1.18,8.41,4.85,15.23,16.61,15.23,26.26Z" fill="url(#New_Gradient_Swatch_copy_17)"/>
            <ellipse cx="454.78" cy="235.36" rx="12.39" ry="21.47" transform="translate(-56.61 261.7) rotate(-30.31)" fill="url(#New_Gradient_Swatch_copy_8-6)"/>
            <path d="m455.51,217.52c-4.03-2.33-7.69-2.64-10.42-1.28,2.54-.71,5.69-.18,9.1,1.79,8.41,4.85,15.23,16.61,15.23,26.26,0,5.02-1.85,8.48-4.81,9.96,3.72-1.04,6.12-4.74,6.12-10.47,0-9.65-6.82-21.41-15.23-26.26Z" fill="url(#radial-gradient-2)" mix-blend-mode="color-dodge"/>
          </g>
          <path d="m452.06,229.1c0,1.36-.96,1.9-2.14,1.22-1.18-.68-2.14-2.33-2.14-3.69s.96-1.9,2.14-1.22c1.18.68,2.14,2.33,2.14,3.69Z" fill="#45108a"/>
          <ellipse cx="458.57" cy="232.86" rx="1.74" ry="3.02" transform="translate(-54.84 263.27) rotate(-30.31)" fill="#45108a"/>
          <path d="m446.16,234.68l2,.34c.92,3.5,3.38,6.91,6.13,8.5,2.66,1.54,5.1,1.03,6.06-1.26l1.98,2.02c-1.28,3.04-4.51,3.71-8.04,1.67-3.64-2.1-6.9-6.63-8.12-11.26Z" fill="#45108a"/>
        </g>
        <g>
          <path d="m491.8,303.54l-32.52-18.78c-2-1.15-5.22-1.16-7.2-.01l-19.08,11.01c-1.98,1.15-1.97,3.01.02,4.16l20.33,11.74.06,11.7,10.1-5.83,2.03,1.17c2,1.15,5.22,1.16,7.2.01l19.08-11.01c1.98-1.15,1.97-3.01-.02-4.16Z" opacity=".2"/>
          <path d="m490.96,305.15v-4.15l-3.21,1.27-28.94-16.71c-1.89-1.09-4.94-1.09-6.81-.01l-17.03,9.83-2.39-1.78v4.19c-.06.76.4,1.53,1.4,2.1l19.22,11.1.06,11.06,9.55-5.51,1.92,1.11c1.89,1.09,4.94,1.09,6.81.01l18.04-10.41c1-.57,1.44-1.34,1.38-2.1Z" fill="url(#linear-gradient)"/>
          <path d="m489.56,298.87l-30.75-17.75c-1.89-1.09-4.94-1.09-6.81-.01l-18.04,10.41c-1.88,1.08-1.87,2.84.02,3.93l19.22,11.1.06,11.06,9.55-5.51,1.92,1.11c1.89,1.09,4.94,1.09,6.81.01l18.04-10.41c1.87-1.08,1.87-2.84-.02-3.93Z" fill="url(#New_Gradient_Swatch_copy_7)"/>
          <path d="m457.27,292.49c0,1.15-1.61,2.08-3.6,2.08-2,0-3.62-.94-3.62-2.09,0-1.15,1.61-2.08,3.6-2.08,1.99,0,3.62.94,3.62,2.09Z" fill="#fff"/>
          <path d="m465.6,297.29c0,1.15-1.61,2.08-3.6,2.08-2,0-3.62-.94-3.62-2.09,0-1.15,1.61-2.08,3.6-2.08,2,0,3.62.94,3.62,2.09Z" fill="#fff"/>
          <path d="m473.93,302.1c0,1.15-1.61,2.08-3.6,2.08-1.99,0-3.62-.94-3.62-2.09,0-1.15,1.61-2.08,3.6-2.08,2,0,3.62.94,3.62,2.09Z" fill="#fff"/>
          <polygon points="462.81 312.1 462.81 316.53 453.26 322.05 453.26 317.61 462.81 312.1" fill="url(#linear-gradient-15)"/>
          <path d="m489.58,302.62l-18.04,10.41c-1.88,1.08-4.92,1.08-6.81-.01l-1.92-1.11-9.55,5.51-.06-11.06-19.22-11.1c-.74-.43-1.19-.97-1.34-1.52-.25.86.19,1.78,1.34,2.45l19.22,11.1.06,11.06,9.55-5.51,1.92,1.11c1.89,1.09,4.94,1.09,6.81.01l18.04-10.41c1.13-.66,1.57-1.56,1.32-2.41-.16.55-.6,1.07-1.32,1.49Z" fill="url(#radial-gradient-3)" mix-blend-mode="color-dodge"/>
        </g>
        <g>
          <path d="m490.96,300.52v-4.15l-3.21,1.27-28.94-16.71c-1.89-1.09-4.94-1.09-6.81-.01l-17.03,9.83-2.39-1.78v4.19c-.06.76.4,1.53,1.4,2.1l19.22,11.1.06,11.06,9.55-5.51,1.92,1.11c1.89,1.09,4.94,1.09,6.81.01l18.04-10.41c1-.57,1.44-1.34,1.38-2.1Z" fill="url(#linear-gradient)"/>
          <path d="m489.56,294.24l-30.75-17.75c-1.89-1.09-4.94-1.09-6.81-.01l-18.04,10.41c-1.88,1.08-1.87,2.84.02,3.93l19.22,11.1.06,11.06,9.55-5.51,1.92,1.11c1.89,1.09,4.94,1.09,6.81.01l18.04-10.41c1.87-1.08,1.87-2.84-.02-3.93Z" fill="url(#New_Gradient_Swatch_copy_7)"/>
          <path d="m457.27,287.85c0,1.15-1.61,2.08-3.6,2.08-2,0-3.62-.94-3.62-2.09,0-1.15,1.61-2.08,3.6-2.08,1.99,0,3.62.94,3.62,2.09Z" fill="#fff"/>
          <path d="m465.6,292.66c0,1.15-1.61,2.08-3.6,2.08-2,0-3.62-.94-3.62-2.09,0-1.15,1.61-2.08,3.6-2.08,2,0,3.62.94,3.62,2.09Z" fill="#fff"/>
          <path d="m473.93,297.47c0,1.15-1.61,2.08-3.6,2.08-1.99,0-3.62-.94-3.62-2.09,0-1.15,1.61-2.08,3.6-2.08,2,0,3.62.94,3.62,2.09Z" fill="#fff"/>
          <polygon points="462.81 307.46 462.81 311.9 453.26 317.42 453.26 312.98 462.81 307.46" fill="url(#linear-gradient-16)"/>
          <path d="m489.58,297.99l-18.04,10.41c-1.88,1.08-4.92,1.08-6.81-.01l-1.92-1.11-9.55,5.51-.06-11.06-19.22-11.1c-.74-.43-1.19-.97-1.34-1.52-.25.86.19,1.78,1.34,2.45l19.22,11.1.06,11.06,9.55-5.51,1.92,1.11c1.89,1.09,4.94,1.09,6.81.01l18.04-10.41c1.13-.66,1.57-1.56,1.32-2.41-.16.55-.6,1.07-1.32,1.49Z" fill="url(#radial-gradient-4)" mix-blend-mode="color-dodge"/>
        </g>
        <g>
          <path d="m490.96,295.78v-4.15l-3.21,1.27-28.94-16.71c-1.89-1.09-4.94-1.09-6.81-.01l-17.03,9.83-2.39-1.78v4.19c-.06.76.4,1.52,1.4,2.1l19.22,11.1.06,11.06,9.55-5.51,1.92,1.11c1.89,1.09,4.94,1.09,6.81.01l18.04-10.41c1-.57,1.44-1.34,1.38-2.1Z" fill="url(#linear-gradient)"/>
          <path d="m489.56,289.5l-30.75-17.75c-1.89-1.09-4.94-1.09-6.81-.01l-18.04,10.41c-1.88,1.08-1.87,2.84.02,3.93l19.22,11.1.06,11.06,9.55-5.51,1.92,1.11c1.89,1.09,4.94,1.09,6.81.01l18.04-10.41c1.87-1.08,1.87-2.84-.02-3.93Z" fill="url(#New_Gradient_Swatch_copy_7)"/>
          <path d="m457.27,283.11c0,1.15-1.61,2.08-3.6,2.08-2,0-3.62-.94-3.62-2.09,0-1.15,1.61-2.08,3.6-2.08,1.99,0,3.62.94,3.62,2.09Z" fill="#fff"/>
          <path d="m465.6,287.92c0,1.15-1.61,2.08-3.6,2.08-2,0-3.62-.94-3.62-2.09,0-1.15,1.61-2.08,3.6-2.08,2,0,3.62.94,3.62,2.09Z" fill="#fff"/>
          <path d="m473.93,292.73c0,1.15-1.61,2.08-3.6,2.08-1.99,0-3.62-.94-3.62-2.09,0-1.15,1.61-2.08,3.6-2.08,2,0,3.62.94,3.62,2.09Z" fill="#fff"/>
          <polygon points="462.81 302.73 462.81 307.16 453.26 312.68 453.26 308.24 462.81 302.73" fill="url(#linear-gradient-17)"/>
          <path d="m489.58,293.25l-18.04,10.41c-1.88,1.08-4.92,1.08-6.81-.01l-1.92-1.11-9.55,5.51-.06-11.06-19.22-11.1c-.74-.43-1.19-.97-1.34-1.52-.25.86.19,1.78,1.34,2.45l19.22,11.1.06,11.06,9.55-5.51,1.92,1.11c1.89,1.09,4.94,1.09,6.81.01l18.04-10.41c1.13-.66,1.57-1.56,1.32-2.41-.16.55-.6,1.07-1.32,1.49Z" fill="url(#radial-gradient-5)" mix-blend-mode="color-dodge"/>
        </g>
        <g>
          <path d="m426,327.1l10.95,1.98c1.83.33,2.22,1.73.66,2.37l-9.33,3.8c-.62.25-.98.67-.97,1.11l.18,6.61c.03,1.11-2.15,1.75-3.69,1.08l-9.2-3.97c-.61-.26-1.41-.34-2.13-.2l-10.84,2.1c-1.81.35-3.55-.65-2.94-1.7l3.64-6.26c.24-.42.11-.88-.34-1.23l-6.88-5.31c-1.15-.89-.05-2.15,1.87-2.13l11.45.11c.76,0,1.48-.2,1.92-.56l6.58-5.39c1.1-.9,3.53-.68,4.1.38l3.43,6.32c.23.42.8.75,1.53.88Z" opacity=".2"/>
          <path d="m437.48,329.76v-3.27l-5.81,1.39-6.33-1.15c-.7-.13-1.25-.45-1.48-.85l-3.32-6.11c-.56-1.02-2.9-1.24-3.96-.37l-6.36,5.2c-.42.35-1.11.55-1.85.54l-11.06-.1s-.04,0-.06,0l-2.24-2.24v3.42l.04.03c-.03.29.1.59.45.86l6.64,5.13c.44.34.57.78.33,1.19l-1.98,3.4-1.64-.27v3.18c-.02.11-.02.21,0,.31v.06h.02c.22.73,1.55,1.27,2.93,1l10.47-2.03c.7-.14,1.46-.06,2.06.19l8.89,3.84c1.49.64,3.59.03,3.57-1.04l-.18-6.39c-.01-.42.34-.82.94-1.07l9.01-3.67c.71-.29,1-.75.92-1.18Z" fill="url(#linear-gradient-18)"/>
          <g mix-blend-mode="multiply">
            <path d="m423.21,342.42l-8.89-3.84c-.59-.26-1.36-.33-2.06-.19l-10.47,2.03c-1.38.27-2.7-.28-2.93-1.01h-.02v.32c-.02.11-.02.21,0,.31v.06h.02c.22.73,1.55,1.27,2.93,1l10.47-2.03c.7-.13,1.46-.06,2.06.19l8.89,3.84c1.49.64,3.59.03,3.57-1.04l-.02-.61c-.07,1.02-2.1,1.59-3.55.97Z" fill="#fdd65b"/>
            <path d="m402.5,332.68c.19-.39.07-.8-.35-1.13l-6.64-5.13c-.35-.27-.48-.57-.45-.86l-.04-.03v.69l.04.03c-.03.29.1.59.45.86l6.64,5.13c.17.13.28.28.35.44Z" fill="#fdd65b"/>
            <path d="m436.55,330.25l-9.01,3.67c-.6.24-.95.64-.94,1.07l.02.6c.04-.39.37-.75.92-.98l9.01-3.67c.71-.29,1-.75.92-1.18v-.69c.08.43-.21.89-.92,1.18Z" fill="#fdd65b"/>
          </g>
          <path d="m425.34,323.36l10.58,1.92c1.77.32,2.15,1.67.64,2.29l-9.01,3.67c-.6.24-.95.64-.94,1.07l.18,6.39c.03,1.07-2.08,1.69-3.57,1.04l-8.89-3.84c-.59-.26-1.36-.33-2.06-.19l-10.47,2.03c-1.75.34-3.43-.63-2.84-1.64l3.52-6.04c.23-.4.11-.85-.33-1.19l-6.64-5.13c-1.11-.86-.04-2.08,1.81-2.06l11.06.1c.74,0,1.43-.2,1.85-.54l6.36-5.2c1.06-.87,3.41-.65,3.96.37l3.32,6.11c.22.41.77.72,1.48.85Z" fill="url(#linear-gradient-19)"/>
          <g mix-blend-mode="color-dodge">
            <path d="m402.48,329.56c.23-.4.1-.84-.33-1.18l-6.64-5.13c-.15-.12-.26-.25-.33-.37-.2.37-.14.79.33,1.15l6.64,5.13c.16.12.26.26.33.4Z" fill="url(#radial-gradient-6)"/>
            <path d="m436.55,327.07l-9.01,3.67c-.6.24-.95.64-.94,1.07l.02.68c.04-.39.37-.74.92-.97l9.01-3.67c.86-.35,1.09-.93.82-1.43-.14.25-.4.48-.82.65Z" fill="url(#radial-gradient-7)"/>
            <path d="m423.21,339.24l-8.89-3.84c-.59-.25-1.36-.33-2.06-.19l-10.47,2.03c-1.27.25-2.49-.2-2.85-.85-.56,1.01,1.1,1.96,2.85,1.63l10.47-2.03c.7-.14,1.46-.06,2.06.19l8.89,3.84c1.49.64,3.6.03,3.57-1.04l-.02-.69c-.09,1.01-2.1,1.58-3.55.96Z" fill="url(#radial-gradient-8)"/>
          </g>
        </g>
        <g>
          <path d="m287.44,48.43l8.43-7.26c1.41-1.22,2.75-.64,2.26.97l-2.92,9.65c-.19.64-.1,1.18.25,1.45l5.26,4.02c.88.67,0,2.77-1.48,3.55l-8.88,4.65c-.59.31-1.15.88-1.49,1.53l-5.18,9.75c-.87,1.63-2.74,2.35-3.17,1.22l-2.57-6.77c-.17-.45-.61-.64-1.17-.51l-8.46,2.01c-1.42.34-1.7-1.32-.48-2.8l7.29-8.84c.48-.59.77-1.28.77-1.84l-.05-8.51c0-1.42,1.69-3.17,2.88-2.95l7.07,1.31c.47.09,1.09-.15,1.65-.63Z" opacity=".2"/>
          <path d="m296.72,41.19l-2.54-2.06-2.57,5.39-4.87,4.2c-.54.47-1.14.7-1.59.61l-6.83-1.26c-1.14-.21-2.79,1.47-2.78,2.85l.04,8.22c0,.55-.27,1.21-.74,1.78l-7.04,8.54s-.02.03-.04.05l-3.15.33,2.66,2.15.05-.02c.2.21.52.29.95.19l8.17-1.94c.54-.13.97.05,1.13.49l1.4,3.68-1.24,1.1,2.47,2c.07.08.15.15.24.2l.05.04v-.02c.72.29,1.97-.4,2.63-1.64l5-9.41c.33-.63.87-1.18,1.44-1.48l8.57-4.5c1.44-.75,2.28-2.78,1.43-3.43l-5.08-3.88c-.34-.26-.43-.78-.24-1.4l2.82-9.32c.22-.74.05-1.25-.34-1.46Z" fill="url(#linear-gradient-20)"/>
          <g mix-blend-mode="multiply">
            <path d="m297.59,60.25l-8.57,4.5c-.57.3-1.11.85-1.44,1.48l-5,9.41c-.66,1.24-1.92,1.93-2.63,1.64v.02s.24.2.24.2c.07.08.15.15.24.2l.05.04v-.02c.72.29,1.97-.4,2.63-1.64l5-9.41c.33-.63.87-1.18,1.44-1.48l8.57-4.5c1.44-.75,2.28-2.78,1.43-3.43l-.49-.37c.75.7-.08,2.63-1.48,3.37Z" fill="#fdd65b"/>
            <path d="m276.99,70.22c-.18-.39-.58-.56-1.1-.43l-8.17,1.94c-.42.1-.74.02-.95-.19l-.05.02.53.43.05-.02c.2.21.52.29.95.19l8.17-1.94c.21-.05.4-.04.56,0Z" fill="#fdd65b"/>
            <path d="m296.53,42.22l-2.82,9.32c-.19.62-.1,1.14.24,1.4l.48.36c-.28-.27-.35-.76-.18-1.33l2.82-9.32c.22-.74.05-1.25-.34-1.46l-.53-.43c.39.21.56.72.34,1.46Z" fill="#fdd65b"/>
          </g>
          <path d="m284.12,46.6l8.14-7.02c1.36-1.17,2.65-.62,2.18.94l-2.82,9.32c-.19.62-.1,1.14.24,1.4l5.08,3.88c.85.65,0,2.68-1.43,3.43l-8.57,4.5c-.57.3-1.11.85-1.44,1.48l-5,9.41c-.84,1.58-2.65,2.27-3.06,1.18l-2.48-6.54c-.17-.43-.59-.62-1.13-.49l-8.17,1.94c-1.37.32-1.64-1.27-.46-2.7l7.04-8.54c.47-.57.75-1.23.74-1.78l-.04-8.22c0-1.38,1.63-3.06,2.78-2.85l6.83,1.26c.45.08,1.05-.14,1.59-.61Z" fill="url(#linear-gradient-21)"/>
          <g mix-blend-mode="color-dodge">
            <path d="m274.55,68.27c-.17-.43-.59-.61-1.13-.48l-8.17,1.94c-.19.05-.35.05-.5.02.16.39.53.6,1.11.47l8.17-1.94c.19-.05.36-.04.52,0Z" fill="url(#radial-gradient-9)"/>
            <path d="m294.06,40.22l-2.82,9.32c-.19.62-.1,1.14.24,1.4l.54.41c-.27-.28-.34-.75-.17-1.32l2.82-9.32c.27-.88-.04-1.43-.6-1.54.11.26.12.61,0,1.05Z" fill="url(#radial-gradient-10)"/>
            <path d="m295.12,58.25l-8.57,4.5c-.57.3-1.11.85-1.44,1.48l-5,9.41c-.61,1.14-1.72,1.81-2.45,1.68.43,1.07,2.22.38,3.06-1.19l5-9.41c.33-.63.87-1.18,1.44-1.48l8.57-4.5c1.44-.75,2.28-2.78,1.43-3.43l-.55-.42c.73.71-.09,2.63-1.49,3.36Z" fill="url(#radial-gradient-11)"/>
          </g>
        </g>
      </g>
    </g>
  </g>
</svg>